<svg width="24" height="24" viewBox="0 0 24 24" fill="none" xmlns="http://www.w3.org/2000/svg">
<g clip-path="url(#clip0_9_158)">
<rect width="24" height="24" fill="white"/>
<path d="M23.7663 9.42903C23.6995 9.37405 23.0984 8.92349 21.8072 8.92349C21.4733 8.92349 21.1282 8.95648 20.7943 9.01142C20.5494 7.32997 19.1357 6.51673 19.0801 6.47278L18.735 6.27493L18.5124 6.59366C18.2341 7.02227 18.0226 7.50582 17.9002 8.00037C17.6665 8.95648 17.8111 9.85765 18.3009 10.6269C17.711 10.9566 16.7537 11.0336 16.5534 11.0445H0.747224C0.335388 11.0445 0.0014493 11.3742 0.0014493 11.7809C-0.0207839 13.1436 0.212945 14.5063 0.691601 15.7921C1.237 17.1988 2.04959 18.2428 3.09591 18.8803C4.2758 19.5946 6.20146 20.0012 8.372 20.0012C9.35154 20.0012 10.331 19.9133 11.2995 19.7374C12.6463 19.4956 13.9375 19.0341 15.1286 18.3637C16.1046 17.8051 16.9841 17.0926 17.7332 16.2537C18.991 14.858 19.7368 13.2974 20.2822 11.9127H20.5048C21.874 11.9127 22.7199 11.3742 23.1874 10.9126C23.4991 10.6269 23.7328 10.2753 23.8998 9.87964L24 9.5939L23.7663 9.42903Z" fill="#0091E2"/>
<path d="M2.2166 10.5939H4.33148C4.43169 10.5939 4.52074 10.517 4.52074 10.4071V8.53887C4.52074 8.43995 4.4428 8.35206 4.33148 8.35206H2.2166C2.11643 8.35206 2.02737 8.42895 2.02737 8.53887V10.4071C2.03849 10.517 2.11643 10.594 2.2166 10.594V10.5939ZM5.13292 10.5939H7.24784C7.34801 10.5939 7.43706 10.517 7.43706 10.4071V8.53887C7.43706 8.43995 7.35912 8.35206 7.24784 8.35206H5.13288C5.03271 8.35206 4.94365 8.42895 4.94365 8.53887V10.4071C4.95481 10.517 5.03275 10.594 5.13288 10.594M8.10486 10.594H10.2198C10.3199 10.594 10.409 10.517 10.409 10.4071V8.53887C10.409 8.43995 10.3311 8.35206 10.2198 8.35206H8.10486C8.00469 8.35206 7.91564 8.42895 7.91564 8.53887V10.4071C7.91564 10.517 7.99357 10.594 8.10486 10.594ZM11.0323 10.594H13.1473C13.2474 10.594 13.3365 10.517 13.3365 10.4071V8.53887C13.3365 8.43995 13.2585 8.35206 13.1473 8.35206H11.0323C10.9322 8.35206 10.8431 8.42895 10.8431 8.53887V10.4071C10.8431 10.517 10.9322 10.594 11.0323 10.594ZM5.13292 7.92345H7.2478C7.34797 7.92345 7.43702 7.83556 7.43702 7.73663V5.86836C7.43702 5.76944 7.35908 5.68151 7.2478 5.68151H5.13288C5.03271 5.68151 4.94365 5.75844 4.94365 5.86836V7.73663C4.95481 7.83552 5.03279 7.92345 5.13292 7.92345ZM8.10486 7.92345H10.2198C10.3199 7.92345 10.409 7.83556 10.409 7.73663V5.86836C10.409 5.76944 10.3311 5.68151 10.2198 5.68151H8.10486C8.00469 5.68151 7.91564 5.75844 7.91564 5.86836V7.73663C7.91564 7.83552 7.99357 7.92345 8.10486 7.92345ZM11.0323 7.92345H13.1473C13.2474 7.92345 13.3365 7.83556 13.3365 7.73663V5.86836C13.3365 5.76944 13.2474 5.68151 13.1473 5.68151H11.0323C10.9322 5.68151 10.8431 5.75844 10.8431 5.86836V7.73663C10.8431 7.83552 10.9322 7.92345 11.0323 7.92345ZM11.0323 5.24194H13.1473C13.2474 5.24194 13.3365 5.16501 13.3365 5.05512V3.18685C13.3365 3.08793 13.2474 3 13.1473 3H11.0323C10.9322 3 10.8431 3.07693 10.8431 3.18685V5.05512C10.8431 5.15401 10.9322 5.24194 11.0323 5.24194ZM13.982 10.594H16.097C16.1971 10.594 16.2862 10.517 16.2862 10.4071V8.53887C16.2862 8.43995 16.2083 8.35206 16.097 8.35206H13.9821C13.8819 8.35206 13.7928 8.42895 13.7928 8.53887V10.4071C13.804 10.517 13.8819 10.594 13.9821 10.594" fill="#0091E2"/>
</g>
<defs>
<clipPath id="clip0_9_158">
<rect width="24" height="24" fill="white"/>
</clipPath>
</defs>
</svg>
