<svg width="24" height="24" viewBox="0 0 24 24" fill="none" xmlns="http://www.w3.org/2000/svg">
<g clip-path="url(#clip0_9_158)">
<rect width="24" height="24" fill="white"/>
<path fill-rule="evenodd" clip-rule="evenodd" d="M3.62491 18.3314V16.7956C3.62491 16.5937 3.75106 16.4316 3.96001 16.4316H4.01783C4.22669 16.4316 4.35228 16.5939 4.35228 16.7956V20.029C4.35228 20.8175 3.96273 21.4449 3.28389 21.8446C2.97292 22.0288 2.61795 22.1256 2.25651 22.1248H2.11223C1.32356 22.1248 0.696996 21.735 0.296652 21.0566C0.112155 20.7457 0.0153584 20.3905 0.0165514 20.029V19.8849C0.0165514 19.0962 0.406289 18.4691 1.08457 18.0687C1.39548 17.8841 1.75064 17.7872 2.11223 17.7885H2.25651C2.79024 17.7885 3.24305 17.9954 3.62491 18.3314ZM0.743836 19.9568C0.743836 20.5264 1.0199 20.9546 1.51899 21.2278C1.72081 21.3382 1.93989 21.3975 2.17015 21.3975C2.72922 21.3975 3.14393 21.1337 3.42994 20.66C3.56295 20.4396 3.62491 20.1984 3.62491 19.9421C3.62491 19.4483 3.39118 19.063 2.99327 18.7768C2.75203 18.6033 2.48048 18.5163 2.18432 18.5163C1.57494 18.5163 1.13639 18.8242 0.873185 19.3711C0.784386 19.556 0.743836 19.7523 0.743836 19.9568ZM6.87563 17.7885H6.97644C7.81918 17.7885 8.46011 18.1973 8.86627 18.9329C9.02866 19.2272 9.11558 19.5484 9.11558 19.8849V20.029C9.11558 20.8175 8.72678 21.4457 8.0469 21.8447C7.73217 22.0293 7.38448 22.1248 7.01971 22.1248H6.87563C6.08695 22.1248 5.4602 21.735 5.06004 21.0566C4.87546 20.7457 4.77856 20.3906 4.77966 20.029V19.8849C4.77966 19.0961 5.17099 18.4711 5.84759 18.0689C6.16214 17.882 6.51011 17.7885 6.87563 17.7885ZM5.50704 19.9568C5.50704 20.5097 5.77832 20.9164 6.24531 21.2024C6.46458 21.3367 6.7061 21.3975 6.96227 21.3975C7.50857 21.3975 7.91239 21.1205 8.19343 20.6594C8.32747 20.4396 8.38811 20.1981 8.38811 19.9421C8.38811 19.428 8.14049 19.0352 7.71715 18.7506C7.4852 18.5945 7.22697 18.5163 6.94762 18.5163C6.33824 18.5163 5.89969 18.8242 5.63658 19.3711C5.54759 19.556 5.50704 19.7523 5.50704 19.9568ZM12.1393 18.5744C12.0295 18.523 11.8239 18.5059 11.7053 18.5014C11.0976 18.4785 10.6579 18.8207 10.4 19.3568C10.3109 19.5417 10.2702 19.7375 10.2702 19.9421C10.2702 20.5651 10.5974 21.0013 11.1534 21.2672C11.3566 21.3643 11.6188 21.3827 11.8408 21.3827C12.0361 21.3827 12.312 21.2631 12.4853 21.1808L12.5154 21.1665H12.6499L12.6647 21.1695C12.8301 21.2039 12.9549 21.3088 12.9549 21.4868V21.5588C12.9549 22.0016 12.1456 22.103 11.8368 22.1246C10.747 22.2 9.93195 21.6015 9.62125 20.562C9.56727 20.3815 9.54296 20.2022 9.54296 20.0141V19.8702C9.54296 19.0814 9.93439 18.4566 10.6109 18.0548C10.9254 17.868 11.2733 17.7741 11.6387 17.7741H11.7829C12.1706 17.7741 12.5277 17.8842 12.8477 18.1028L12.874 18.1211L12.8906 18.1485C12.9252 18.2057 12.9549 18.272 12.9549 18.3401V18.4121C12.9549 18.5978 12.816 18.6977 12.6484 18.73L12.6345 18.7324H12.5915C12.483 18.7324 12.2362 18.6201 12.1393 18.5744ZM14.4986 19.067C14.7811 18.784 15.0646 18.5017 15.3514 18.2235C15.4313 18.1458 15.7338 17.8173 15.8529 17.8173H15.9832L15.998 17.8204C16.164 17.8549 16.2883 17.9599 16.2883 18.1382V18.2101C16.2883 18.3318 16.1458 18.4732 16.0672 18.5564C15.9001 18.7335 15.7242 18.9049 15.5532 19.0783L14.6744 19.9704C15.0528 20.3497 15.4308 20.7292 15.8061 21.1113C15.9102 21.2168 16.0134 21.323 16.1159 21.4301C16.1521 21.4681 16.2054 21.5154 16.2357 21.5681C16.2683 21.6174 16.2883 21.6731 16.2883 21.7325V21.8076L16.284 21.825C16.2432 21.9909 16.1379 22.1248 15.954 22.1248H15.8961C15.7758 22.1248 15.6398 21.9887 15.5574 21.9109C15.3875 21.7507 15.2235 21.5823 15.057 21.4187L14.4986 20.8705V21.7467C14.4986 21.9485 14.3722 22.1107 14.1636 22.1107H14.1063C13.8974 22.1107 13.7712 21.9485 13.7712 21.7467V16.8096C13.7712 16.6078 13.8975 16.4464 14.1063 16.4464H14.1636C14.3722 16.4464 14.4986 16.6078 14.4986 16.8096V19.067ZM23.564 17.8173H23.6363C23.8544 17.8173 24 17.9643 24 18.1812C24 18.4824 23.7121 18.5594 23.4631 18.5594C23.1365 18.5594 22.8245 18.7572 22.5993 18.979C22.3186 19.2558 22.1957 19.6104 22.1957 20.0001V21.761C22.1957 21.9628 22.0696 22.1248 21.8606 22.1248H21.8032C21.5941 22.1248 21.4681 21.9629 21.4681 21.761V19.899C21.4681 19.184 21.8162 18.6003 22.3965 18.191C22.743 17.9465 23.1398 17.8173 23.564 17.8173ZM18.3944 21.3069C18.6591 21.3994 18.9609 21.3861 19.2324 21.3388C19.3713 21.2798 19.7265 21.1248 19.8572 21.1475L19.8776 21.151L19.8963 21.1602C19.9761 21.1989 20.0523 21.2536 20.093 21.3348C20.1882 21.5251 20.1425 21.7164 19.9555 21.8244L19.8932 21.8604C19.2033 22.2585 18.4695 22.2033 17.7817 21.8314C17.4529 21.6537 17.2013 21.3898 17.0157 21.0681L16.9724 20.9929C16.5294 20.2258 16.5892 19.419 17.0888 18.6895C17.2612 18.4374 17.4866 18.2426 17.7501 18.0903L17.8497 18.0327C18.4995 17.6576 19.1959 17.6834 19.8632 18.0125C20.2221 18.1896 20.5128 18.4534 20.7131 18.8005L20.7491 18.863C20.8946 19.1151 20.7061 19.3348 20.5115 19.485C20.2857 19.6592 20.0577 19.8689 19.8412 20.0557C19.3586 20.4723 18.8767 20.89 18.3944 21.3069ZM17.7697 20.8682C18.3094 20.4054 18.8493 19.9422 19.3877 19.4774C19.5717 19.3188 19.7734 19.1542 19.9559 18.9874C19.8094 18.8028 19.5648 18.6698 19.357 18.5905C18.9374 18.4306 18.5237 18.4843 18.139 18.7064C17.6354 18.9972 17.4209 19.4603 17.4396 20.0365C17.4472 20.2635 17.5082 20.4822 17.6286 20.6753C17.671 20.7433 17.7184 20.8073 17.7697 20.8682ZM13.8443 6.29274H15.9907V8.48689H17.0759C17.5772 8.48689 18.0926 8.39762 18.5672 8.23683C18.8004 8.1577 19.0621 8.04768 19.2922 7.90923C18.9892 7.51367 18.8345 7.01421 18.7891 6.52187C18.7271 5.85213 18.8623 4.98048 19.3155 4.45632L19.5411 4.19537L19.81 4.41155C20.4869 4.95532 21.0562 5.71527 21.1565 6.58157C21.9716 6.34183 22.9285 6.39853 23.6469 6.81314L23.9416 6.98323L23.7866 7.28605C23.179 8.47178 21.9087 8.83917 20.6668 8.77412C18.8085 13.4026 14.7627 15.5939 9.85732 15.5939C7.3229 15.5939 4.99781 14.6465 3.67372 12.398L3.65203 12.3614L3.45914 11.9688C3.01158 10.9791 2.86289 9.89481 2.9637 8.81139L2.99402 8.48689H4.82951V6.29274H6.97578V4.14637H11.2686V2H13.8443V6.29274Z" fill="#364548"/>
<path fill-rule="evenodd" clip-rule="evenodd" d="M20.7982 7.10448C20.9421 5.98596 20.1051 5.10745 19.586 4.69031C18.9878 5.38192 18.8948 7.1945 19.8333 7.95764C19.3095 8.42285 18.2059 8.8445 17.0759 8.8445H3.32008C3.21025 10.0241 3.41732 11.1105 3.89032 12.0402L4.0468 12.3265C4.14588 12.4945 4.25414 12.657 4.37111 12.8131C4.93666 12.8494 5.45809 12.8619 5.93513 12.8514H5.93531C6.87277 12.8308 7.63769 12.72 8.21742 12.5191C8.2584 12.5064 8.30274 12.5101 8.34105 12.5294C8.37936 12.5488 8.40864 12.5823 8.4227 12.6228C8.43676 12.6634 8.43449 12.7078 8.41638 12.7467C8.39827 12.7856 8.36573 12.816 8.32565 12.8313C8.24849 12.8582 8.16814 12.8831 8.08516 12.9069H8.08488C7.6284 13.0373 7.13888 13.1249 6.50734 13.1639C6.54489 13.1646 6.46829 13.1695 6.46811 13.1695C6.44661 13.1709 6.41958 13.174 6.39799 13.1752C6.14943 13.1892 5.88115 13.1921 5.60687 13.1921C5.30687 13.1921 5.01147 13.1864 4.68115 13.1695L4.67271 13.1752C5.81883 14.4634 7.61094 15.236 9.85737 15.236C14.6116 15.236 18.6441 13.1285 20.4298 8.39713C21.6967 8.52714 22.9142 8.20404 23.468 7.12288C22.5859 6.61384 21.4514 6.77613 20.7982 7.10448Z" fill="#22A0C8"/>
<path fill-rule="evenodd" clip-rule="evenodd" d="M20.7982 7.10448C20.9421 5.98596 20.1051 5.10745 19.586 4.69031C18.9878 5.38192 18.8948 7.1945 19.8333 7.95764C19.3096 8.42285 18.206 8.8445 17.0759 8.8445H4.13467C4.07854 10.6511 4.74894 12.0224 5.93505 12.8514H5.93533C6.87278 12.8308 7.63771 12.72 8.21743 12.5191C8.25842 12.5064 8.30275 12.5101 8.34106 12.5294C8.37937 12.5488 8.40866 12.5823 8.42271 12.6228C8.43677 12.6634 8.43451 12.7078 8.41639 12.7467C8.39828 12.7856 8.36574 12.816 8.32566 12.8313C8.2485 12.8582 8.16815 12.8831 8.08517 12.9069H8.08489C7.62842 13.0373 7.09685 13.1362 6.46531 13.1752C6.46512 13.1752 6.45001 13.1606 6.44982 13.1606C8.06781 13.9906 10.4138 13.9876 13.1036 12.9544C16.1196 11.7957 18.9261 9.58831 20.8843 7.06356C20.8548 7.07689 20.8261 7.0905 20.7982 7.10448Z" fill="#37B1D9"/>
<path fill-rule="evenodd" clip-rule="evenodd" d="M3.34589 10.2778C3.43131 10.9097 3.61622 11.5013 3.89032 12.0402L4.04679 12.3265C4.14585 12.4946 4.25412 12.657 4.37111 12.8131C4.93675 12.8495 5.45818 12.8619 5.93531 12.8514C6.87276 12.8308 7.63769 12.72 8.21741 12.5191C8.2584 12.5064 8.30273 12.5101 8.34104 12.5294C8.37935 12.5488 8.40863 12.5823 8.42269 12.6228C8.43675 12.6634 8.43449 12.7078 8.41637 12.7467C8.39826 12.7856 8.36572 12.816 8.32564 12.8313C8.24848 12.8582 8.16813 12.8832 8.08515 12.9069H8.08487C7.6284 13.0373 7.09964 13.1306 6.4681 13.1696C6.44642 13.171 6.40859 13.1712 6.38672 13.1725C6.13835 13.1863 5.87279 13.1949 5.59842 13.1949C5.29851 13.1949 4.99176 13.1892 4.66162 13.1724C5.80774 14.4606 7.61094 15.236 9.85737 15.236C13.9275 15.236 17.4685 13.6912 19.5237 10.2778H3.34589Z" fill="#1B81A5"/>
<path fill-rule="evenodd" clip-rule="evenodd" d="M4.25848 10.2778C4.50179 11.3873 5.08649 12.2583 5.93533 12.8514C6.87278 12.8308 7.63771 12.72 8.21743 12.5191C8.25842 12.5064 8.30275 12.5101 8.34106 12.5294C8.37937 12.5488 8.40865 12.5823 8.42271 12.6228C8.43677 12.6634 8.4345 12.7078 8.41639 12.7467C8.39828 12.7856 8.36574 12.816 8.32566 12.8313C8.2485 12.8582 8.16815 12.8832 8.08517 12.9069H8.08489C7.62841 13.0373 7.08849 13.1306 6.45686 13.1696C8.07475 13.9994 10.414 13.9875 13.1036 12.9544C14.7307 12.3292 16.2967 11.3986 17.7016 10.2778H4.25848Z" fill="#1D91B4"/>
<path fill-rule="evenodd" clip-rule="evenodd" d="M5.1871 6.65046H7.04737V8.51072H5.1871V6.65046ZM5.34208 6.80553H5.48889V8.35575H5.34208V6.80553ZM5.61805 6.80553H5.77077V8.35575H5.61814L5.61805 6.80553ZM5.89984 6.80553H6.05256V8.35575H5.89984V6.80553ZM6.18182 6.80553H6.33444V8.35575H6.18182V6.80553ZM6.4637 6.80553H6.61633V8.35575H6.4637V6.80553ZM6.74549 6.80553H6.89239V8.35575H6.74549V6.80553ZM7.33347 4.50409H9.19383V6.36426H7.33338L7.33347 4.50409ZM7.48854 4.65916H7.63526V6.20928H7.48854V4.65916ZM7.76451 4.65916H7.91714V6.20928H7.76461L7.76451 4.65916ZM8.0463 4.65916H8.19893V6.20928H8.0463V4.65916ZM8.32819 4.65916H8.48081V6.20928H8.32819V4.65916ZM8.61007 4.65916H8.76279V6.20928H8.61007V4.65916ZM8.89186 4.65916H9.03886V6.20928H8.89186V4.65916Z" fill="#23A3C2"/>
<path fill-rule="evenodd" clip-rule="evenodd" d="M7.33347 6.65045H9.19382V8.51071H7.33337L7.33347 6.65045ZM7.48854 6.80552H7.63525V8.35574H7.48854V6.80552ZM7.76451 6.80552H7.91714V8.35574H7.7646L7.76451 6.80552ZM8.0463 6.80552H8.19892V8.35574H8.0463V6.80552ZM8.32818 6.80552H8.48081V8.35574H8.32818V6.80552ZM8.61006 6.80552H8.76279V8.35574H8.61006V6.80552ZM8.89185 6.80552H9.03885V8.35574H8.89185V6.80552Z" fill="#34BBDE"/>
<path fill-rule="evenodd" clip-rule="evenodd" d="M9.47998 6.65045H11.3402V8.51071H9.47998V6.65045ZM9.63496 6.80552H9.78167V8.35574H9.63496V6.80552ZM9.91093 6.80552H10.0636V8.35574H9.91093V6.80552ZM10.1928 6.80552H10.3454V8.35574H10.1928V6.80552ZM10.4747 6.80552H10.6273V8.35574H10.4747V6.80552ZM10.7565 6.80552H10.9093V8.35574H10.7565V6.80552ZM11.0384 6.80552H11.1852V8.35574H11.0384V6.80552Z" fill="#23A3C2"/>
<path fill-rule="evenodd" clip-rule="evenodd" d="M9.47998 4.50409H11.3402V6.36426H9.47998V4.50409ZM9.63496 4.65916H9.78167V6.20928H9.63496V4.65916ZM9.91093 4.65916H10.0636V6.20928H9.91093V4.65916ZM10.1928 4.65916H10.3454V6.20928H10.1928V4.65916ZM10.4747 4.65916H10.6273V6.20928H10.4747V4.65916ZM10.7565 4.65916H10.9093V6.20928H10.7565V4.65916ZM11.0384 4.65916H11.1852V6.20928H11.0384V4.65916ZM11.6264 6.65046H13.4866V8.51072H11.6264V6.65046ZM11.7814 6.80553H11.9281V8.35575H11.7814V6.80553ZM12.0574 6.80553H12.21V8.35575H12.0574V6.80553ZM12.3392 6.80553H12.4918V8.35575H12.3392V6.80553ZM12.6211 6.80553H12.7738V8.35575H12.6211V6.80553ZM12.9029 6.80553H13.0557V8.35575H12.9029V6.80553ZM13.1848 6.80553H13.3316V8.35575H13.1848V6.80553Z" fill="#34BBDE"/>
<path fill-rule="evenodd" clip-rule="evenodd" d="M11.6263 4.50409H13.4866V6.36426H11.6263V4.50409ZM11.7814 4.65916H11.9281V6.20928H11.7814V4.65916ZM12.0574 4.65916H12.21V6.20928H12.0574V4.65916ZM12.3392 4.65916H12.4918V6.20928H12.3392V4.65916ZM12.6211 4.65916H12.7738V6.20928H12.6211V4.65916ZM12.9029 4.65916H13.0557V6.20928H12.9029V4.65916ZM13.1848 4.65916H13.3316V6.20928H13.1848V4.65916Z" fill="#23A3C2"/>
<path fill-rule="evenodd" clip-rule="evenodd" d="M11.6263 2.35767H13.4866V4.21812H11.6263V2.35767ZM11.7814 2.51264H11.9281V4.06295H11.7814V2.51264ZM12.0574 2.51264H12.21V4.06295H12.0574V2.51264ZM12.3392 2.51264H12.4918V4.06295H12.3392V2.51264ZM12.6211 2.51264H12.7738V4.06295H12.6211V2.51264ZM12.9029 2.51264H13.0557V4.06295H12.9029V2.51264ZM13.1848 2.51264H13.3316V4.06295H13.1848V2.51264Z" fill="#34BBDE"/>
<path fill-rule="evenodd" clip-rule="evenodd" d="M13.7727 6.65045H15.633V8.51071H13.7727V6.65045ZM13.9276 6.80552H14.0745V8.35574H13.9277V6.80552H13.9276ZM14.2036 6.80552H14.3563V8.35574H14.2036L14.2036 6.80552ZM14.4855 6.80552H14.6383V8.35574H14.4855V6.80552ZM14.7673 6.80552H14.92V8.35574H14.7673V6.80552ZM15.0493 6.80552H15.2019V8.35574H15.0493V6.80552ZM15.3311 6.80552H15.4779V8.35574H15.3311V6.80552Z" fill="#23A3C2"/>
<path fill-rule="evenodd" clip-rule="evenodd" d="M9.07734 11.5268C9.14532 11.5259 9.21281 11.5385 9.27588 11.5639C9.33894 11.5893 9.39634 11.6269 9.44473 11.6747C9.49312 11.7225 9.53154 11.7794 9.55776 11.8421C9.58397 11.9048 9.59747 11.9721 9.59746 12.0401C9.59744 12.1081 9.58392 12.1754 9.55768 12.2381C9.53144 12.3008 9.493 12.3577 9.44459 12.4055C9.39619 12.4532 9.33878 12.4908 9.2757 12.5162C9.21262 12.5416 9.14514 12.5542 9.07716 12.5532C8.94224 12.5514 8.81348 12.4965 8.71874 12.4004C8.624 12.3044 8.5709 12.1748 8.57092 12.0399C8.57095 11.905 8.6241 11.7755 8.71888 11.6795C8.81365 11.5834 8.94243 11.5286 9.07734 11.5268Z" fill="#D3ECEC"/>
<path fill-rule="evenodd" clip-rule="evenodd" d="M9.07735 11.6724C9.12428 11.6724 9.16906 11.6812 9.21036 11.6973C9.18186 11.7138 9.1596 11.7393 9.14702 11.7697C9.13444 11.8002 9.13225 11.834 9.14077 11.8658C9.1493 11.8976 9.16807 11.9258 9.19418 11.9459C9.2203 11.966 9.25231 11.9769 9.28526 11.977C9.34205 11.977 9.39133 11.9455 9.41687 11.899C9.4471 11.9718 9.4531 12.0524 9.434 12.1289C9.41489 12.2054 9.37169 12.2737 9.31078 12.3238C9.24986 12.3739 9.17446 12.403 9.09571 12.4069C9.01696 12.4108 8.93904 12.3893 8.87345 12.3455C8.80787 12.3018 8.75811 12.2381 8.73151 12.1638C8.70491 12.0896 8.70289 12.0088 8.72575 11.9334C8.7486 11.8579 8.79512 11.7918 8.85844 11.7448C8.92175 11.6978 8.9985 11.6724 9.07735 11.6724ZM0 10.4633H23.873C23.3533 10.3315 22.2284 10.1533 22.4139 9.47205C21.4687 10.5658 19.1893 10.2394 18.614 9.70014C17.9734 10.6292 14.2441 10.276 13.984 9.55221C13.1809 10.4947 10.6923 10.4947 9.88921 9.55221C9.62891 10.276 5.89966 10.6292 5.25901 9.70005C4.68379 10.2394 2.40451 10.5658 1.45926 9.47214C1.64474 10.1533 0.519931 10.3314 0 10.4633Z" fill="#364548"/>
<path fill-rule="evenodd" clip-rule="evenodd" d="M10.4415 15.225C9.17052 14.6219 8.47299 13.8019 8.08485 12.907C7.6127 13.0417 7.04527 13.1279 6.38585 13.1649C6.13748 13.1788 5.87615 13.1859 5.60206 13.1859C5.28591 13.1859 4.95278 13.1765 4.60303 13.158C5.76858 14.3229 7.2024 15.2197 9.85735 15.236C10.0533 15.236 10.2478 15.2323 10.4415 15.225Z" fill="#BDD9D7"/>
<path fill-rule="evenodd" clip-rule="evenodd" d="M8.55695 13.7328C8.38114 13.4941 8.21058 13.1941 8.08518 12.9068C7.61302 13.0417 7.04541 13.1279 6.38589 13.1649C6.8389 13.4108 7.48658 13.6386 8.55695 13.7328Z" fill="#D3ECEC"/>
</g>
<defs>
<clipPath id="clip0_9_158">
<rect width="24" height="24" fill="white"/>
</clipPath>
</defs>
</svg>
