<svg width="24" height="24" viewBox="0 0 24 24" fill="none" xmlns="http://www.w3.org/2000/svg">
<rect width="24" height="24" fill="white"/>
<path d="M12.0002 8.81351C11.5109 8.81351 11.1147 9.2101 11.1147 9.69899C11.1147 10.1879 11.5113 10.5845 12.0002 10.5845C12.4894 10.5845 12.8856 10.1879 12.8856 9.69899C12.885 9.21042 12.4891 8.8145 12.0002 8.81351Z" fill="#00B2E3"/>
<path d="M6.56036 4.2592L7.48211 5.18095C8.63858 4.02415 10.2378 3.31042 12.0002 3.31042C13.7626 3.31042 15.3618 4.02448 16.5186 5.18062L17.4403 4.25887C16.0488 2.86735 14.1239 2 12.0002 2C9.8768 2 7.95188 2.86735 6.56036 4.2592Z" fill="#00B2E3"/>
<path d="M8.22287 5.92202L9.14462 6.84376C9.87647 6.11191 10.8885 5.65993 11.9999 5.65993C13.1108 5.65993 14.1239 6.11191 14.8557 6.84376L15.7775 5.92202C14.8106 4.95511 13.4731 4.34918 12.0002 4.34918C10.5276 4.34918 9.19011 4.95478 8.22287 5.92202Z" fill="#00B2E3"/>
<path d="M9.87646 7.57563L10.7982 8.49737C11.4622 7.83474 12.5375 7.83474 13.2018 8.49737L14.1235 7.57563C13.5605 7.01223 12.7963 6.69707 11.9998 6.69904C11.1777 6.69904 10.4277 7.03366 9.87646 7.57563Z" fill="#00B2E3"/>
<path d="M15.2715 7.32246C15.7594 7.99102 16.0485 8.81353 16.0485 9.69902C16.0485 11.9309 14.2324 13.7473 12.0002 13.7473C9.76835 13.7473 7.95189 11.9309 7.95189 9.69902C7.95189 8.8132 8.24101 7.99102 8.72924 7.32246L7.7986 6.39148C7.07564 7.30432 6.65103 8.45189 6.65103 9.69902C6.65103 12.6449 9.05463 15.0485 12.0005 15.0485C14.9464 15.0485 17.3503 12.6449 17.3503 9.69902C17.3503 8.45189 16.9165 7.30432 16.2028 6.39148L15.2715 7.32246Z" fill="#002B49"/>
<path d="M3.44929 17.7956C3.44929 16.98 2.85227 16.3619 2.09008 16.3619C1.32789 16.3619 0.730869 16.9803 0.730869 17.7956C0.730869 18.6112 1.32789 19.2138 2.09008 19.2138C2.85227 19.2138 3.44929 18.6112 3.44929 17.7956ZM4.1795 17.7956C4.1795 18.9686 3.2627 19.8906 2.08975 19.8906C0.91713 19.8906 0 18.9686 0 17.7956C0 16.6174 0.916801 15.6795 2.08975 15.6795C3.2627 15.6795 4.1795 16.6177 4.1795 17.7956Z" fill="#00B2E3"/>
<path d="M6.651 18.4833C6.651 17.9927 6.33122 17.6838 5.90463 17.6838C5.52618 17.6838 5.14772 17.9931 5.14772 18.4833C5.14772 18.9738 5.52618 19.2775 5.90463 19.2775C6.33122 19.2778 6.651 18.9742 6.651 18.4833ZM7.33308 18.4833C7.33308 19.32 6.70407 19.8906 6.02694 19.8906C5.66464 19.8906 5.37123 19.7838 5.14739 19.6028V21.3032H4.44421V17.1508H5.14805V17.3641C5.37189 17.1775 5.66497 17.071 6.0276 17.071C6.7044 17.0707 7.33308 17.6466 7.33308 18.4833Z" fill="#00B2E3"/>
<path d="M8.27526 18.1741H9.56029C9.46964 17.8329 9.21382 17.6835 8.93129 17.6835C8.66426 17.6839 8.36064 17.8437 8.27526 18.1741ZM10.2796 18.6699H8.25383C8.32306 19.0536 8.59503 19.2883 8.92008 19.2883C9.1281 19.2883 9.3892 19.2616 9.58106 18.9366L10.2101 19.0698C9.97534 19.6243 9.50095 19.8906 8.91975 19.8906C8.16812 19.8906 7.55527 19.3203 7.55527 18.4836C7.55527 17.6466 8.16845 17.0713 8.93063 17.0713C9.63974 17.0713 10.2526 17.6202 10.2793 18.4305L10.2796 18.6699Z" fill="#00B2E3"/>
<path d="M13.1507 18.1902V19.8109H12.4472V18.3396C12.4472 17.9667 12.2339 17.7162 11.9088 17.7162C11.5089 17.7162 11.2478 17.9825 11.2478 18.633V19.8109H10.544V17.1508H11.2475V17.3908C11.4555 17.1828 11.7325 17.071 12.0845 17.071C12.7241 17.071 13.1507 17.5292 13.1507 18.1902Z" fill="#00B2E3"/>
<path d="M17.4782 19.8108H16.9132L15.9219 17.1827L14.925 19.8108H14.3652L13.0376 15.7592H13.7945L14.685 18.4355L15.703 15.7592H16.1348L17.1528 18.4355L18.0433 15.7592H18.8051L17.4782 19.8108Z" fill="#00B2E3"/>
<path d="M20.5369 17.1349L20.4996 17.8117H20.345C19.6946 17.8117 19.3959 18.2116 19.3959 18.9527V19.8108H18.6924V17.1508H19.3959V17.6146C19.593 17.3054 19.9023 17.1135 20.3503 17.1135C20.4195 17.1132 20.4729 17.1132 20.5369 17.1349Z" fill="#00B2E3"/>
<path d="M22.0332 18.8298C22.0332 19.0909 22.1559 19.2349 22.3692 19.2349C22.4915 19.2349 22.6728 19.1815 22.8119 19.107L23.0146 19.6935C22.7374 19.8428 22.5455 19.8906 22.3217 19.8906C21.6874 19.8906 21.3301 19.528 21.3301 18.8828V17.726H20.7597V17.1504H21.3301V16.1855L22.0336 15.9722V17.1504H23.0625V17.726H22.0332V18.8298Z" fill="#00B2E3"/>
<path d="M6.74563 21.2884H6.58706L6.43871 20.88L6.28904 21.2884H6.13146L5.88882 20.5355H6.09091L6.21651 20.9416L6.37409 20.5355H6.50299L6.65958 20.9416L6.7865 20.5355H6.98859L6.74563 21.2884Z" fill="#002B49"/>
<path d="M7.74255 21.1249H7.89815V21.2884H7.39673V21.1249H7.55233V20.7H7.39673V20.5355H7.89815V20.7H7.74255V21.1249Z" fill="#002B49"/>
<path d="M8.74734 20.9614C8.82679 20.9614 8.89207 20.908 8.89207 20.8269C8.89207 20.7474 8.82679 20.6986 8.74734 20.6986H8.59405V20.9614H8.74734ZM8.88119 21.2884L8.7424 21.1249H8.59405V21.2884H8.4035V20.5355H8.75427C8.9524 20.5355 9.0724 20.6525 9.0724 20.8269C9.0724 20.9386 9.02196 21.029 8.9346 21.0794L9.11987 21.2884H8.88119Z" fill="#002B49"/>
<path d="M10.0875 21.2884H9.51285V20.5355H10.0815V20.699H9.70307V20.8275H10.0756V20.9911H9.70307V21.1249H10.0875V21.2884Z" fill="#002B49"/>
<path d="M11.1486 21.2884H10.5928V20.5355H10.7827V21.1249H11.1486V21.2884Z" fill="#002B49"/>
<path d="M12.226 21.2884H11.6511V20.5355H12.2197V20.699H11.8413V20.8275H12.2141V20.9911H11.8413V21.1249H12.226V21.2884Z" fill="#002B49"/>
<path d="M13.3356 20.7375L13.1494 20.7751C13.1335 20.699 13.0821 20.6772 13.0376 20.6772C12.9931 20.6772 12.9562 20.7 12.9562 20.7415C12.9562 20.7712 12.972 20.79 13.0046 20.8002L13.1513 20.8467C13.275 20.8872 13.3425 20.9446 13.3425 21.0629C13.3425 21.2324 13.1939 21.3036 13.0462 21.3036C12.8827 21.3036 12.7498 21.2175 12.731 21.0738L12.9262 21.0342C12.942 21.1084 12.9865 21.1404 13.0521 21.1404C13.1075 21.1404 13.1411 21.1147 13.1411 21.0751C13.1411 21.0454 13.1253 21.0247 13.0838 21.0138L12.944 20.9732C12.8299 20.9406 12.7528 20.8823 12.7528 20.7603C12.7528 20.6067 12.8734 20.5223 13.0383 20.5223C13.1949 20.5216 13.3106 20.5968 13.3356 20.7375Z" fill="#002B49"/>
<path d="M14.3312 20.7375L14.145 20.7751C14.1291 20.699 14.0777 20.6772 14.0332 20.6772C13.9887 20.6772 13.9518 20.7 13.9518 20.7415C13.9518 20.7712 13.9676 20.79 14.0002 20.8002L14.1469 20.8467C14.2706 20.8872 14.3382 20.9446 14.3382 21.0629C14.3382 21.2324 14.1895 21.3036 14.0418 21.3036C13.8783 21.3036 13.7454 21.2175 13.7266 21.0738L13.9218 21.0342C13.9376 21.1084 13.9821 21.1404 14.0477 21.1404C14.1031 21.1404 14.1367 21.1147 14.1367 21.0751C14.1367 21.0455 14.1209 21.0247 14.0794 21.0138L13.9396 20.9729C13.8255 20.9403 13.7481 20.8816 13.7481 20.76C13.7481 20.6063 13.8687 20.5219 14.0335 20.5219C14.1905 20.5216 14.3062 20.5968 14.3312 20.7375Z" fill="#002B49"/>
<path d="M15.7089 20.8275H16.0626V20.9911H15.7089V21.2884H15.5187V20.5355H16.0883V20.699H15.7089V20.8275Z" fill="#002B49"/>
<path d="M16.9376 20.9614C17.017 20.9614 17.0823 20.908 17.0823 20.8269C17.0823 20.7474 17.017 20.6986 16.9376 20.6986H16.784V20.9614H16.9376ZM17.0714 21.2884L16.9326 21.1249H16.784V21.2884H16.5938V20.5355H16.9445C17.1426 20.5355 17.2626 20.6525 17.2626 20.8269C17.2626 20.9386 17.2122 21.029 17.1248 21.0794L17.3101 21.2884H17.0714Z" fill="#002B49"/>
<path d="M18.2777 21.2884H17.7027V20.5355H18.2714V20.699H17.8929V20.8275H18.2658V20.9911H17.8929V21.1249H18.2777V21.2884Z" fill="#002B49"/>
<path d="M19.3577 21.2884H18.7831V20.5355H19.3517V20.699H18.9733V20.8275H19.3458V20.9911H18.9733V21.1249H19.3577V21.2884Z" fill="#002B49"/>
<path d="M20.1966 21.1249C20.3265 21.1249 20.4056 21.0399 20.4056 20.9119C20.4056 20.784 20.3265 20.699 20.1966 20.699H20.0532V21.1249H20.1966ZM20.1989 20.5355C20.4386 20.5355 20.5972 20.6861 20.5972 20.9119C20.5972 21.1378 20.4389 21.2884 20.1989 21.2884H19.8627V20.5355H20.1989Z" fill="#002B49"/>
<path d="M21.6043 20.9129C21.6043 20.7893 21.511 20.693 21.393 20.693C21.275 20.693 21.182 20.7893 21.182 20.9129C21.182 21.0369 21.2753 21.1328 21.393 21.1328C21.511 21.1328 21.6043 21.0375 21.6043 20.9129ZM21.7955 20.9129C21.7955 21.1328 21.6152 21.3033 21.3934 21.3033C21.1712 21.3033 20.9902 21.1328 20.9902 20.9129C20.9902 20.693 21.1705 20.5216 21.3934 20.5216C21.6162 20.5216 21.7955 20.6937 21.7955 20.9129Z" fill="#002B49"/>
<path d="M23.0621 21.2884H22.8759V20.9307L22.654 21.236H22.5966L22.3744 20.9311V21.2888H22.1882V20.5358H22.3101L22.625 20.9785L22.9405 20.5358H23.0621V21.2884Z" fill="#002B49"/>
<path d="M23.5226 15.6099C23.5754 15.6099 23.6031 15.5822 23.6031 15.5456C23.6031 15.5094 23.5754 15.4823 23.5226 15.4823H23.4247V15.6103L23.5226 15.6099ZM23.702 15.904L23.5058 15.691H23.4251V15.904H23.3351V15.4003H23.5233C23.6291 15.4003 23.6931 15.4606 23.6931 15.5453C23.6947 15.6033 23.6594 15.6557 23.6057 15.6765L23.8154 15.904H23.702Z" fill="#00B2E3"/>
<path d="M23.5312 15.2773C23.309 15.2773 23.1287 15.4573 23.1287 15.6795C23.1287 15.9017 23.309 16.082 23.5312 16.082C23.7534 16.082 23.9337 15.9017 23.9337 15.6795C23.9334 15.4573 23.7534 15.2773 23.5312 15.2773ZM23.5312 16.1483C23.2721 16.1483 23.0621 15.9383 23.0621 15.6795C23.0617 15.4204 23.2717 15.2104 23.5309 15.2104C23.7896 15.2104 24 15.4204 24 15.6795C23.9996 15.9383 23.79 16.1479 23.5312 16.1483Z" fill="#00B2E3"/>
</svg>
