<svg width="24" height="24" viewBox="0 0 24 24" fill="none" xmlns="http://www.w3.org/2000/svg">
<rect width="24" height="24" fill="white"/>
<path d="M22.3473 16.6087H1.72453C0.790406 16.6087 0 15.8287 0 14.9067V3.70197C0 2.78006 0.790406 2 1.72453 2H22.2755C23.2096 2 24 2.78006 24 3.70197V14.9067C24 15.8286 23.2814 16.6087 22.3473 16.6087ZM1.72453 3.13461C1.43709 3.13461 1.14966 3.41829 1.14966 3.70197V14.9067C1.14966 15.2613 1.43709 15.4741 1.72453 15.4741H22.2755C22.6347 15.4741 22.8503 15.1904 22.8503 14.9067V3.70197C22.8503 3.34742 22.5629 3.13461 22.2755 3.13461H1.72453Z" fill="black"/>
<path d="M14.4431 9.44618L17.8922 13.2048L21.3413 9.37531H19.0419V5.40393H16.7425V9.44618H14.4431Z" fill="#B53589"/>
<path d="M3.44905 5.40393V13.2048H5.74846V8.73699L8.04786 11.5738L10.3473 8.73699V13.2048H12.6467V5.40393H10.3473L8.04786 8.2407L5.74846 5.40393H3.44905Z" fill="black"/>
<path d="M2.35141 18.4127H2.73841V20.6087H2.25241V19.3067L1.75741 20.0147H1.49641L0.995414 19.3007V20.6087H0.515414V18.4127H0.911414L1.63441 19.4717L2.35141 18.4127ZM4.88878 18.4127L5.77978 20.6087H5.23978L5.07178 20.1647H4.24078L4.07878 20.6087H3.56878L4.43578 18.4127H4.88878ZM4.90978 19.7357L4.64878 19.0517L4.39978 19.7357H4.90978ZM8.51285 20.6087L7.90385 20.6057L7.41785 19.8647H7.40285H7.12685V20.6087H6.61385V18.4127H7.41185C7.59385 18.4127 7.75185 18.4427 7.88585 18.5027C8.02185 18.5627 8.12585 18.6477 8.19785 18.7577C8.26985 18.8677 8.30585 18.9947 8.30585 19.1387C8.30585 19.2767 8.27285 19.3987 8.20685 19.5047C8.14085 19.6107 8.04585 19.6947 7.92185 19.7567L8.51285 20.6087ZM7.12685 18.8447V19.4357H7.35185C7.46585 19.4357 7.56285 19.4137 7.64285 19.3697C7.72485 19.3237 7.76585 19.2467 7.76585 19.1387C7.76585 18.9427 7.62785 18.8447 7.35185 18.8447H7.12685ZM10.4931 19.2887L11.4081 20.6087H10.7481L10.1181 19.6877L9.84209 19.9877V20.6087H9.32909V18.4127H9.84209V19.3727L10.6791 18.4127H11.3121L10.4931 19.2887ZM12.9652 18.4127C13.1792 18.4127 13.3732 18.4557 13.5472 18.5417C13.7212 18.6277 13.8582 18.7537 13.9582 18.9197C14.0602 19.0837 14.1112 19.2797 14.1112 19.5077C14.1112 19.7357 14.0602 19.9327 13.9582 20.0987C13.8582 20.2647 13.7212 20.3917 13.5472 20.4797C13.3752 20.5657 13.1812 20.6087 12.9652 20.6087H12.1732V18.4127H12.9652ZM12.9082 20.1767C13.1262 20.1767 13.2912 20.1187 13.4032 20.0027C13.5152 19.8867 13.5712 19.7217 13.5712 19.5077C13.5712 19.2957 13.5142 19.1327 13.4002 19.0187C13.2882 18.9027 13.1242 18.8447 12.9082 18.8447H12.6862V20.1767H12.9082ZM14.9417 19.5077C14.9417 19.2757 14.9887 19.0737 15.0827 18.9017C15.1787 18.7297 15.3087 18.5987 15.4727 18.5087C15.6367 18.4167 15.8177 18.3707 16.0157 18.3707C16.2137 18.3707 16.3937 18.4167 16.5557 18.5087C16.7197 18.5987 16.8497 18.7297 16.9457 18.9017C17.0417 19.0737 17.0897 19.2757 17.0897 19.5077C17.0897 19.7417 17.0417 19.9447 16.9457 20.1167C16.8497 20.2887 16.7197 20.4207 16.5557 20.5127C16.3937 20.6027 16.2137 20.6477 16.0157 20.6477C15.8157 20.6477 15.6337 20.6027 15.4697 20.5127C15.3077 20.4207 15.1787 20.2887 15.0827 20.1167C14.9887 19.9447 14.9417 19.7417 14.9417 19.5077ZM15.4847 19.5077C15.4847 19.6417 15.5067 19.7597 15.5507 19.8617C15.5967 19.9637 15.6597 20.0427 15.7397 20.0987C15.8197 20.1527 15.9117 20.1797 16.0157 20.1797C16.1197 20.1797 16.2117 20.1527 16.2917 20.0987C16.3737 20.0427 16.4367 19.9637 16.4807 19.8617C16.5267 19.7597 16.5497 19.6417 16.5497 19.5077C16.5497 19.3757 16.5267 19.2597 16.4807 19.1597C16.4367 19.0577 16.3737 18.9797 16.2917 18.9257C16.2117 18.8697 16.1197 18.8417 16.0157 18.8417C15.9117 18.8417 15.8197 18.8697 15.7397 18.9257C15.6597 18.9797 15.5967 19.0577 15.5507 19.1597C15.5067 19.2597 15.4847 19.3757 15.4847 19.5077ZM19.4738 18.4127L19.8938 19.7627L20.2808 18.4127H20.7728L20.0798 20.6087H19.6868L19.2607 19.2977L18.8468 20.6087H18.4568L17.7368 18.4127H18.2648L18.6758 19.7627L19.0718 18.4127H19.4738ZM22.0219 18.4127L23.0179 19.7447V18.4127H23.4859V20.6087H23.0749L22.0789 19.2737V20.6087H21.6109V18.4127H22.0219Z" fill="black"/>
</svg>
