<svg width="24" height="24" viewBox="0 0 24 24" fill="none" xmlns="http://www.w3.org/2000/svg">
<g clip-path="url(#clip0_9_2)">
<rect width="24" height="24" fill="white"/>
<path d="M22.0038 10.5183L18.9854 8.76906L18.4636 8.54196L6.11707 8.62848V14.9602H22.0011L22.0038 10.5183Z" fill="white"/>
<path d="M16.5075 14.3763C16.6547 13.8653 16.5985 13.3949 16.3523 13.0461C16.1275 12.7271 15.7476 12.5406 15.29 12.5189L6.63083 12.4054C6.57464 12.4054 6.52648 12.3756 6.49704 12.3351C6.46761 12.2918 6.46225 12.2351 6.47563 12.1783C6.50507 12.0918 6.58802 12.0296 6.679 12.0215L15.4158 11.9079C16.4486 11.8593 17.5752 11.013 17.9685 9.97488L18.4689 8.66095C18.4903 8.60417 18.4984 8.5474 18.4823 8.49062C17.9231 5.91953 15.6512 4 12.9352 4C10.4306 4 8.30594 5.63566 7.54599 7.90124C7.05362 7.53086 6.42747 7.3335 5.75315 7.39568C4.549 7.51734 3.58568 8.49062 3.46794 9.70452C3.43851 10.0181 3.45991 10.3236 3.53216 10.6075C1.57074 10.6643 0 12.2837 0 14.2817C0 14.4601 0.0133794 14.6358 0.0347865 14.8143C0.0481659 14.9008 0.120415 14.963 0.203367 14.963H16.1864C16.2774 14.963 16.363 14.8981 16.3898 14.8061L16.5075 14.3763Z" fill="#F38020"/>
<path d="M19.2664 8.75555C19.1888 8.75555 19.1058 8.75555 19.0282 8.76366C18.972 8.76366 18.9239 8.80692 18.9025 8.8637L18.5653 10.0506C18.4181 10.5615 18.4743 11.032 18.7205 11.3807C18.9453 11.6997 19.3252 11.8863 19.7828 11.9079L21.6265 12.0215C21.6827 12.0215 21.7309 12.0512 21.7603 12.0918C21.7897 12.135 21.7951 12.1972 21.7817 12.2486C21.7523 12.3351 21.6693 12.3973 21.5783 12.4054L19.657 12.5189C18.6161 12.5676 17.4976 13.4138 17.1043 14.452L16.9624 14.8142C16.933 14.8845 16.9838 14.9575 17.0614 14.9575H23.6548C23.7324 14.9575 23.802 14.9089 23.8234 14.8305C23.9358 14.4195 24 13.9842 24 13.5382C24 10.9022 21.8754 8.75555 19.2664 8.75555Z" fill="#FAAE40"/>
<path d="M1.85115 19.6C1.95715 19.6 2.04815 19.572 2.12415 19.516C2.20215 19.46 2.26415 19.382 2.31015 19.282L2.67315 19.492C2.61915 19.64 2.52015 19.762 2.37615 19.858C2.23215 19.952 2.06015 19.999 1.86015 19.999C1.66615 19.999 1.48915 19.952 1.32915 19.858C1.16915 19.764 1.04215 19.631 0.948152 19.459C0.854152 19.285 0.807152 19.086 0.807152 18.862C0.807152 18.638 0.853152 18.44 0.945152 18.268C1.03915 18.096 1.16615 17.963 1.32615 17.869C1.48815 17.775 1.66615 17.728 1.86015 17.728C2.06015 17.728 2.23215 17.776 2.37615 17.872C2.52015 17.966 2.61915 18.087 2.67315 18.235L2.31015 18.445C2.26415 18.345 2.20215 18.267 2.12415 18.211C2.04815 18.155 1.95715 18.127 1.85115 18.127C1.73915 18.127 1.63915 18.157 1.55115 18.217C1.46315 18.277 1.39315 18.363 1.34115 18.475C1.29115 18.585 1.26615 18.714 1.26615 18.862C1.26615 19.01 1.29115 19.14 1.34115 19.252C1.39315 19.364 1.46315 19.45 1.55115 19.51C1.63915 19.57 1.73915 19.6 1.85115 19.6ZM2.95414 17.767H3.38914V19.573H4.38814V19.963H2.95414V17.767ZM4.46926 18.862C4.46926 18.632 4.51526 18.431 4.60726 18.259C4.69926 18.087 4.82426 17.956 4.98226 17.866C5.14226 17.774 5.32026 17.728 5.51626 17.728C5.71226 17.728 5.88926 17.774 6.04726 17.866C6.20726 17.956 6.33326 18.087 6.42526 18.259C6.51926 18.431 6.56626 18.632 6.56626 18.862C6.56626 19.094 6.51926 19.296 6.42526 19.468C6.33326 19.64 6.20726 19.772 6.04726 19.864C5.88926 19.954 5.71226 19.999 5.51626 19.999C5.32026 19.999 5.14226 19.954 4.98226 19.864C4.82426 19.772 4.69926 19.64 4.60726 19.468C4.51526 19.296 4.46926 19.094 4.46926 18.862ZM4.92826 18.862C4.92826 19.008 4.95226 19.137 5.00026 19.249C5.05026 19.361 5.11926 19.448 5.20726 19.51C5.29726 19.57 5.40026 19.6 5.51626 19.6C5.63226 19.6 5.73426 19.57 5.82226 19.51C5.91226 19.448 5.98126 19.361 6.02926 19.249C6.07926 19.137 6.10426 19.008 6.10426 18.862C6.10426 18.716 6.07926 18.588 6.02926 18.478C5.98126 18.366 5.91226 18.28 5.82226 18.22C5.73426 18.158 5.63226 18.127 5.51626 18.127C5.40026 18.127 5.29726 18.158 5.20726 18.22C5.11926 18.28 5.05026 18.366 5.00026 18.478C4.95226 18.588 4.92826 18.716 4.92826 18.862ZM8.32787 17.767H8.76287V19.075C8.76287 19.263 8.72587 19.427 8.65187 19.567C8.57787 19.705 8.47087 19.812 8.33087 19.888C8.19087 19.962 8.02487 19.999 7.83287 19.999C7.63887 19.999 7.47187 19.962 7.33187 19.888C7.19187 19.812 7.08487 19.705 7.01087 19.567C6.93687 19.427 6.89987 19.263 6.89987 19.075V17.767H7.33487V18.97C7.33487 19.182 7.37787 19.34 7.46387 19.444C7.55187 19.548 7.67487 19.6 7.83287 19.6C7.98887 19.6 8.10987 19.548 8.19587 19.444C8.28387 19.34 8.32787 19.182 8.32787 18.97V17.767ZM9.93224 17.767C10.1462 17.767 10.3392 17.81 10.5112 17.896C10.6852 17.982 10.8222 18.108 10.9222 18.274C11.0222 18.438 11.0722 18.634 11.0722 18.862C11.0722 19.09 11.0222 19.287 10.9222 19.453C10.8222 19.619 10.6862 19.746 10.5142 19.834C10.3422 19.92 10.1482 19.963 9.93224 19.963H9.20024V17.767H9.93224ZM9.88124 19.591C10.1172 19.591 10.2982 19.528 10.4242 19.402C10.5502 19.276 10.6132 19.096 10.6132 18.862C10.6132 18.632 10.5492 18.454 10.4212 18.328C10.2952 18.2 10.1152 18.136 9.88124 18.136H9.63524V19.591H9.88124ZM11.4297 17.767H12.8607V18.148H11.8647V18.709H12.7557V19.087H11.8647V19.963H11.4297V17.767ZM13.167 17.767H13.602V19.573H14.601V19.963H13.167V17.767ZM15.9363 17.767L16.8243 19.963H16.3623L16.1703 19.462H15.3153L15.1293 19.963H14.6943L15.5553 17.767H15.9363ZM16.0293 19.09L15.7353 18.319L15.4503 19.09H16.0293ZM18.8992 19.963L18.3802 19.96L17.8462 19.171H17.8282H17.5102V19.963H17.0752V17.767H17.8342C18.0062 17.767 18.1572 17.796 18.2872 17.854C18.4172 17.912 18.5172 17.995 18.5872 18.103C18.6572 18.209 18.6922 18.331 18.6922 18.469C18.6922 18.609 18.6562 18.732 18.5842 18.838C18.5122 18.944 18.4112 19.025 18.2812 19.081L18.8992 19.963ZM17.5102 18.136V18.802H17.7832C17.9112 18.802 18.0172 18.775 18.1012 18.721C18.1872 18.665 18.2302 18.581 18.2302 18.469C18.2302 18.355 18.1882 18.271 18.1042 18.217C18.0202 18.163 17.9132 18.136 17.7832 18.136H17.5102ZM20.4549 19.036H19.5639V19.582H20.5929V19.963H19.1289V17.767H20.5599V18.145H19.5639V18.661H20.4549V19.036ZM22.0161 17.734C22.2281 17.734 22.4201 17.784 22.5921 17.884C22.7641 17.982 22.8991 18.117 22.9971 18.289C23.0971 18.461 23.1471 18.653 23.1471 18.865C23.1471 19.077 23.0971 19.269 22.9971 19.441C22.8991 19.611 22.7641 19.746 22.5921 19.846C22.4201 19.944 22.2281 19.993 22.0161 19.993C21.8061 19.993 21.6151 19.944 21.4431 19.846C21.2711 19.746 21.1361 19.61 21.0381 19.438C20.9401 19.266 20.8911 19.075 20.8911 18.865C20.8911 18.653 20.9401 18.461 21.0381 18.289C21.1361 18.117 21.2711 17.982 21.4431 17.884C21.6151 17.784 21.8061 17.734 22.0161 17.734ZM22.0161 19.849C22.2001 19.849 22.3671 19.806 22.5171 19.72C22.6691 19.634 22.7881 19.516 22.8741 19.366C22.9601 19.216 23.0031 19.049 23.0031 18.865C23.0031 18.681 22.9601 18.514 22.8741 18.364C22.7881 18.212 22.6691 18.093 22.5171 18.007C22.3671 17.921 22.2001 17.878 22.0161 17.878C21.8321 17.878 21.6651 17.921 21.5151 18.007C21.3651 18.093 21.2471 18.212 21.1611 18.364C21.0751 18.514 21.0321 18.681 21.0321 18.865C21.0321 19.049 21.0751 19.216 21.1611 19.366C21.2471 19.516 21.3651 19.634 21.5151 19.72C21.6651 19.806 21.8321 19.849 22.0161 19.849ZM22.0491 18.37C21.9271 18.37 21.8251 18.415 21.7431 18.505C21.6631 18.593 21.6231 18.713 21.6231 18.865C21.6231 19.015 21.6631 19.135 21.7431 19.225C21.8251 19.313 21.9271 19.357 22.0491 19.357C22.1131 19.357 22.1721 19.343 22.2261 19.315C22.2801 19.285 22.3221 19.24 22.3521 19.18L22.4751 19.255C22.4371 19.339 22.3801 19.402 22.3041 19.444C22.2281 19.486 22.1431 19.507 22.0491 19.507C21.9431 19.507 21.8451 19.48 21.7551 19.426C21.6651 19.372 21.5931 19.297 21.5391 19.201C21.4871 19.103 21.4611 18.991 21.4611 18.865C21.4611 18.739 21.4871 18.627 21.5391 18.529C21.5931 18.431 21.6651 18.355 21.7551 18.301C21.8451 18.247 21.9431 18.22 22.0491 18.22C22.1431 18.22 22.2281 18.241 22.3041 18.283C22.3801 18.325 22.4371 18.388 22.4751 18.472L22.3521 18.547C22.3221 18.487 22.2801 18.443 22.2261 18.415C22.1721 18.385 22.1131 18.37 22.0491 18.37Z" fill="black"/>
</g>
<defs>
<clipPath id="clip0_9_2">
<rect width="24" height="24" fill="white"/>
</clipPath>
</defs>
</svg>
