<svg width="116" height="28" viewBox="0 0 116 28" fill="none" xmlns="http://www.w3.org/2000/svg">
<rect width="115.688" height="28" fill="white"/>
<path d="M67.1822 20.2874C66.901 20.2874 66.6767 20.0621 66.6767 19.7797C66.6767 19.4973 66.901 19.272 67.1822 19.272C67.4634 19.272 67.6876 19.4973 67.6876 19.7797C67.6876 20.0621 67.457 20.2874 67.1822 20.2874ZM67.1822 19.3703C66.9579 19.3703 66.7747 19.5544 66.7747 19.7797C66.7747 20.005 66.9579 20.189 67.1822 20.189C67.4065 20.189 67.5897 20.005 67.5897 19.7797C67.5897 19.5544 67.4065 19.3703 67.1822 19.3703ZM67.4381 20.0462H67.3212L67.2201 19.8558H67.0874V20.0462H66.98V19.4877H67.2454C67.3623 19.4877 67.4349 19.5639 67.4349 19.6718C67.4349 19.7543 67.3844 19.8146 67.318 19.84L67.4381 20.0462ZM67.2391 19.7543C67.2801 19.7543 67.3212 19.7289 67.3212 19.6718C67.3212 19.6051 67.2864 19.5893 67.2391 19.5893H67.0716V19.7575H67.2391V19.7543ZM14.4035 19.2212H15.6987V22.7656H17.9479V23.9016H14.4035V19.2212ZM19.2874 21.5725V21.5567C19.2874 20.2144 20.3678 19.1196 21.8052 19.1196C23.2426 19.1196 24.304 20.1954 24.304 21.5376V21.5535C24.304 22.8957 23.2236 23.9905 21.7862 23.9905C20.3488 23.9905 19.2874 22.9148 19.2874 21.5725ZM22.9898 21.5725V21.5567C22.9898 20.8808 22.5097 20.2969 21.7925 20.2969C21.0754 20.2969 20.6142 20.8712 20.6142 21.5471V21.563C20.6142 22.2389 21.0944 22.8228 21.802 22.8228C22.5097 22.8228 22.9898 22.2484 22.9898 21.5725ZM25.8899 21.8486V19.2212H27.2009V21.8232C27.2009 22.4991 27.5421 22.8164 28.057 22.8164C28.5719 22.8164 28.9131 22.5086 28.9131 21.8581V19.2212H30.2241V21.8169C30.2241 23.3273 29.368 23.9873 28.0412 23.9873C26.7207 23.9841 25.8899 23.3146 25.8899 21.8486ZM32.2017 19.2212H33.9961C35.6577 19.2212 36.6276 20.1795 36.6276 21.5313V21.5471C36.6276 22.8989 35.6483 23.8985 33.9708 23.8985H32.2017V19.2212ZM34.0182 22.7498C34.789 22.7498 35.3039 22.3246 35.3039 21.5662V21.5503C35.3039 20.7983 34.789 20.3667 34.0182 20.3667H33.4938V22.7434H34.0182V22.7498ZM38.5041 19.2212H42.2318V20.3572H39.7898V21.1568H41.998V22.2325H39.7898V23.9016H38.5041V19.2212ZM44.0261 19.2212H45.3119V22.7656H47.5706V23.9016H44.023V19.2212H44.0261ZM50.9445 19.1863H52.1892L54.1731 23.8985H52.7863L52.4451 23.0639H50.6507L50.319 23.8985H48.9638L50.9445 19.1863ZM52.0818 22.0548L51.5669 20.7285L51.0425 22.0548H52.0818ZM55.8379 19.2212H58.0398C58.7538 19.2212 59.2434 19.4052 59.5593 19.7289C59.8342 19.9954 59.9732 20.354 59.9732 20.8205V20.8363C59.9732 21.5535 59.5909 22.0295 59.0191 22.2706L60.1311 23.9048H58.6369L57.6986 22.4864H57.1332V23.9048H55.8379V19.2212ZM57.9798 21.4646C58.4189 21.4646 58.6685 21.2489 58.6685 20.9125V20.8966C58.6685 20.5285 58.4031 20.3445 57.9703 20.3445H57.1237V21.4615L57.9798 21.4646ZM61.8339 19.2212H65.5805V20.3223H63.1133V21.0299H65.3468V22.0548H63.1133V22.7974H65.6121V23.8985H61.8339V19.2212ZM11.5792 22.1215C11.396 22.5308 11.0138 22.8228 10.5146 22.8228C9.81015 22.8228 9.32681 22.2294 9.32681 21.563V21.5471C9.32681 20.8712 9.80068 20.2969 10.5052 20.2969C11.0359 20.2969 11.4434 20.6237 11.6108 21.0712H12.9724C12.7576 19.9542 11.7751 19.126 10.5146 19.126C9.08041 19.1292 8 20.2207 8 21.563V21.5789C8 22.9243 9.06461 24 10.4988 24C11.7277 24 12.6912 23.2004 12.9408 22.131L11.5792 22.1215Z" fill="#404041"/>
<path d="M64.0516 11.6505L60.4881 9.5975L59.8721 9.33095L45.2961 9.43249V16.8641H64.0484L64.0516 11.6505Z" fill="white"/>
<path d="M57.5628 16.1787C57.7365 15.579 57.6702 15.0268 57.3796 14.6175C57.1142 14.243 56.6656 14.0241 56.1254 13.9987L45.9026 13.8654C45.8363 13.8654 45.7794 13.8305 45.7447 13.7829C45.7099 13.7322 45.7036 13.6655 45.7194 13.5989C45.7542 13.4973 45.8521 13.4244 45.9595 13.4148L56.2739 13.2816C57.4933 13.2245 58.8233 12.2312 59.2877 11.0127L59.8784 9.47057C59.9037 9.40394 59.9131 9.3373 59.8942 9.27066C59.2339 6.25296 56.5519 4 53.3454 4C50.3885 4 47.8802 5.91978 46.983 8.57891C46.4018 8.14418 45.6625 7.91254 44.8665 7.98552C43.4449 8.12832 42.3076 9.27066 42.1686 10.6954C42.1338 11.0635 42.1591 11.4221 42.2444 11.7553C39.9288 11.8219 38.0744 13.7226 38.0744 16.0676C38.0744 16.2771 38.0902 16.4833 38.1155 16.6927C38.1313 16.7943 38.2166 16.8673 38.3145 16.8673H57.1837C57.2911 16.8673 57.3922 16.7911 57.4238 16.6832L57.5628 16.1787Z" fill="#F38020"/>
<path d="M60.8198 9.58165C60.7282 9.58165 60.6303 9.58165 60.5387 9.59117C60.4723 9.59117 60.4155 9.64194 60.3902 9.70858L59.9922 11.1016C59.8184 11.7013 59.8847 12.2535 60.1754 12.6628C60.4407 13.0373 60.8893 13.2562 61.4295 13.2816L63.6061 13.4149C63.6725 13.4149 63.7293 13.4498 63.7641 13.4974C63.7988 13.5481 63.8052 13.6211 63.7894 13.6814C63.7546 13.7829 63.6567 13.8559 63.5493 13.8655L61.2811 13.9987C60.0522 14.0558 58.7317 15.0491 58.2673 16.2676L58.0999 16.6928C58.0651 16.7753 58.1251 16.8609 58.2167 16.8609H66.0007C66.0923 16.8609 66.1745 16.8038 66.1997 16.7118C66.3324 16.2295 66.4082 15.7186 66.4082 15.195C66.4082 12.1012 63.8999 9.58165 60.8198 9.58165Z" fill="#FAAE40"/>
<path d="M84.8397 15.436V18.748C84.8397 19.2707 84.7757 19.6653 84.6477 19.932C84.5303 20.2093 84.3223 20.4013 84.0237 20.508C83.725 20.6147 83.277 20.6733 82.6797 20.684C82.253 20.684 81.741 20.6467 81.1437 20.572L80.7757 18.732C81.3197 18.8067 81.8317 18.844 82.3117 18.844C82.557 18.844 82.717 18.8013 82.7917 18.716C82.8663 18.62 82.9037 18.4493 82.9037 18.204V15.596L78.9517 15.932L77.7517 16.06L77.3997 14.172C77.677 14.1507 77.917 14.124 78.1197 14.092C78.333 14.0493 78.5997 13.9853 78.9197 13.9C79.9223 13.6013 81.1597 12.956 82.6317 11.964C81.149 12.1453 80.0983 12.268 79.4797 12.332C79.501 12.332 79.1863 12.3693 78.5357 12.444L78.1197 12.492L77.7517 10.796C78.0503 10.7427 78.2797 10.6893 78.4397 10.636C78.6103 10.5827 78.7863 10.5187 78.9677 10.444C79.565 10.1667 80.3917 9.60133 81.4477 8.748C80.0183 8.844 78.6957 8.908 77.4797 8.94L77.2557 7.196C79.0583 7.17467 81.1383 7.068 83.4957 6.876C85.8637 6.684 87.8477 6.45467 89.4477 6.188L89.8157 7.948C88.493 8.15067 86.5677 8.35333 84.0397 8.556C83.005 9.516 82.1197 10.236 81.3837 10.716C82.557 10.62 83.7143 10.5027 84.8557 10.364C85.7517 9.64933 86.4237 9.07867 86.8717 8.652L88.4237 9.788C87.4103 10.6947 86.3383 11.5427 85.2077 12.332C84.0877 13.1213 83.0423 13.7347 82.0717 14.172C83.6717 14.0333 85.2717 13.8733 86.8717 13.692C86.541 13.3293 86.2423 13.0147 85.9757 12.748L87.3677 11.66C88.3597 12.6733 89.4583 13.8573 90.6637 15.212L89.2717 16.428L88.9997 16.108C88.669 15.7133 88.381 15.388 88.1357 15.132L84.8397 15.436ZM86.9197 15.916C87.9863 16.588 89.389 17.5427 91.1277 18.78L90.0877 20.364C89.4903 19.9053 88.7757 19.3933 87.9437 18.828C87.1223 18.2627 86.4237 17.804 85.8477 17.452L86.9197 15.916ZM81.4317 17.484C79.853 18.796 78.4717 19.772 77.2877 20.412L76.2637 18.78C77.7357 18.012 79.0477 17.1053 80.1997 16.06L81.4317 17.484ZM104.504 6.268H106.408V18.604C106.408 19.372 106.237 19.9213 105.896 20.252C105.565 20.5827 104.968 20.7533 104.104 20.764C103.453 20.7747 102.754 20.748 102.008 20.684L101.656 18.748C102.37 18.8333 103.037 18.876 103.656 18.876C103.986 18.876 104.21 18.812 104.328 18.684C104.445 18.5453 104.504 18.2893 104.504 17.916V6.268ZM92.7597 8.556V6.684H100.664V8.556H97.0797C96.941 9.1 96.781 9.628 96.5997 10.14H100.264V11.916C99.9437 13.2387 99.5223 14.412 98.9997 15.436C98.477 16.46 97.7997 17.42 96.9677 18.316C96.1463 19.212 95.101 20.124 93.8317 21.052L92.5517 19.436C93.4157 18.8493 94.1517 18.2893 94.7597 17.756C95.3783 17.212 95.9063 16.6627 96.3437 16.108C95.8317 15.6493 95.2237 15.132 94.5197 14.556C94.1357 15.164 93.709 15.7507 93.2397 16.316L92.0077 14.812C92.6263 14.012 93.229 13.0307 93.8157 11.868C94.4023 10.6947 94.8237 9.59067 95.0797 8.556H92.7597ZM101.288 7.724H103.208V17.036H101.288V7.724ZM95.8957 11.964C95.8423 12.1027 95.6983 12.4173 95.4637 12.908C96.3277 13.612 96.9677 14.1453 97.3837 14.508C97.757 13.772 98.077 12.924 98.3437 11.964H95.8957Z" fill="black"/>
</svg>
