<svg width="133" height="28" viewBox="0 0 133 28" fill="none" xmlns="http://www.w3.org/2000/svg">
<rect width="132.667" height="28" fill="white"/>
<path d="M44.0466 9.83064C43.6377 9.81772 43.3055 10.1409 43.2927 10.5417V14.265C41.5422 12.8429 38.974 13.1273 37.5685 14.8985C36.9935 15.6354 36.674 16.5404 36.674 17.4842C36.6357 19.7595 38.4245 21.6341 40.6733 21.6729C42.9222 21.7117 44.7749 19.9017 44.8132 17.6264V10.5934C44.8132 10.3866 44.7365 10.1926 44.596 10.0504C44.4427 9.90821 44.251 9.83064 44.0466 9.83064ZM43.0883 18.4796C42.8327 19.1002 42.3472 19.5915 41.7339 19.863C41.095 20.1345 40.3795 20.1345 39.7406 19.863C39.1273 19.6044 38.6545 19.1002 38.399 18.4926C38.1307 17.8591 38.1307 17.1351 38.399 16.4887C38.6545 15.8681 39.1401 15.3769 39.7406 15.1183C40.3795 14.8468 41.095 14.8468 41.7339 15.1183C42.3472 15.3898 42.8327 15.8811 43.0883 16.5016C43.3566 17.1222 43.3566 17.8462 43.0883 18.4796ZM52.5435 14.5753C50.9591 12.9722 48.3781 12.9722 46.7937 14.5753C46.0271 15.351 45.6054 16.3982 45.6054 17.4842C45.5671 19.7595 47.3559 21.6341 49.6047 21.6729C51.8535 21.7117 53.7062 19.9017 53.7446 17.6264V17.4842C53.7446 16.9412 53.6424 16.4111 53.4379 15.9069C53.2335 15.4027 52.9268 14.9502 52.5435 14.5753ZM52.0196 18.4667C51.8919 18.777 51.7002 19.0485 51.4702 19.2812C51.2402 19.5139 50.9591 19.7078 50.6652 19.8371C50.0264 20.1086 49.3108 20.1086 48.672 19.8371C48.0587 19.5785 47.5731 19.0743 47.3176 18.4667C47.0492 17.8332 47.0492 17.1092 47.3176 16.4628C47.5731 15.8423 48.0587 15.3639 48.672 15.0924C49.3108 14.8209 50.0264 14.8209 50.6652 15.0924C50.9719 15.2217 51.2402 15.4156 51.4702 15.6484C51.7002 15.8811 51.8919 16.1655 52.0196 16.4628C52.288 17.1222 52.288 17.8462 52.0196 18.4667ZM69.3713 14.1228C69.3713 14.0194 69.3457 13.916 69.3074 13.8255C69.2691 13.735 69.2052 13.6574 69.1413 13.5798C69.0774 13.5152 68.988 13.4506 68.8985 13.4118C68.8091 13.373 68.7069 13.3471 68.6046 13.3471C68.4641 13.3471 68.3235 13.3859 68.1958 13.4635L63.8515 16.3206V10.6063C63.8515 10.3995 63.7748 10.2056 63.6342 10.0634C63.4937 9.92114 63.302 9.83064 63.0976 9.83064C62.6759 9.83064 62.3437 10.1668 62.331 10.5934V20.8197C62.331 21.0265 62.4076 21.2204 62.5482 21.3626C62.6887 21.5178 62.8804 21.5954 63.0848 21.5954C63.2893 21.5954 63.4809 21.5178 63.6215 21.3626C63.762 21.2204 63.8515 21.0265 63.8387 20.8197V18.1694L64.7203 17.5876L68.0808 21.4014C68.2213 21.5307 68.4002 21.6083 68.5919 21.5954C68.6941 21.5954 68.7963 21.5824 68.8857 21.5307C68.9752 21.4919 69.0518 21.4402 69.1285 21.3626C69.1924 21.2851 69.2563 21.2075 69.2946 21.117C69.3329 21.0265 69.3585 20.9231 69.3585 20.8197C69.3585 20.6257 69.2818 20.4318 69.1541 20.2896L66.0364 16.7343L69.0774 14.7305C69.2818 14.6012 69.3841 14.3685 69.3713 14.1228ZM56.76 15.6484C56.99 15.4156 57.2711 15.2217 57.5778 15.0924C57.8972 14.9632 58.2294 14.8856 58.5744 14.8856C58.8811 14.8856 59.1749 14.9373 59.4561 15.0407C59.7372 15.1571 60.0055 15.3122 60.2355 15.5191C60.376 15.6354 60.5549 15.6871 60.7338 15.6871C60.9382 15.7001 61.1427 15.6225 61.2832 15.4674C61.4238 15.3251 61.5004 15.1183 61.5004 14.9114C61.5004 14.6917 61.411 14.4719 61.2321 14.3297C60.5038 13.6703 59.5583 13.3083 58.5744 13.3342C56.3256 13.3342 54.4984 15.1829 54.4984 17.4583C54.4984 19.7337 56.3128 21.5695 58.5489 21.5824C59.5327 21.5824 60.4782 21.2334 61.2193 20.5869C61.3727 20.4447 61.4621 20.2379 61.4621 20.0181C61.4749 19.6044 61.1554 19.2683 60.7593 19.2553H60.7082C60.5294 19.2553 60.3632 19.307 60.2227 19.4105C59.9927 19.6173 59.7372 19.7725 59.4561 19.8888C59.1749 19.9922 58.8683 20.044 58.5744 20.044C58.2294 20.044 57.8972 19.9793 57.5778 19.8371C57.2711 19.7078 57.0028 19.5139 56.76 19.2812C55.7634 18.2728 55.7634 16.6438 56.76 15.6484C56.76 15.657 56.76 15.657 56.76 15.6484ZM84.4613 13.8772C84.308 13.735 84.1419 13.6315 83.9502 13.5669C83.733 13.4893 83.503 13.4376 83.273 13.4118C83.043 13.3859 82.8131 13.373 82.5831 13.373C82.1231 13.373 81.6503 13.4506 81.2159 13.6186C80.7815 13.7738 80.3854 14.0065 80.0276 14.2909V14.1358C80.0148 13.7091 79.657 13.3859 79.2354 13.3988C78.8393 13.4118 78.5199 13.735 78.5071 14.1358V20.8455C78.5199 21.2721 78.8776 21.5954 79.2993 21.5824C79.6954 21.5695 80.0148 21.2463 80.0276 20.8455V17.4971C80.0276 17.148 80.0915 16.8119 80.232 16.4887C80.3598 16.1784 80.5387 15.9069 80.7814 15.6742C81.0114 15.4415 81.2925 15.2476 81.5864 15.1183C81.9059 14.989 82.2381 14.9114 82.5831 14.9114C82.928 14.9114 83.2603 14.9761 83.5797 15.0924C83.6819 15.1442 83.7841 15.17 83.8991 15.17C84.0013 15.17 84.1036 15.1571 84.193 15.1054C84.2824 15.0666 84.3591 15.0149 84.4358 14.9373C84.4997 14.8727 84.5635 14.7822 84.6019 14.6917C84.6402 14.6012 84.6658 14.4977 84.6658 14.3943C84.6785 14.2004 84.6019 14.0194 84.4613 13.8772ZM77.4082 15.9069C76.7566 14.3814 75.2744 13.3859 73.6389 13.373C71.3901 13.373 69.5757 15.2088 69.5629 17.4842C69.5629 19.7595 71.3901 21.6083 73.6389 21.6083C74.61 21.6083 75.5555 21.2592 76.2966 20.6128L76.3222 20.5869C76.386 20.5352 76.4499 20.4706 76.4883 20.393C76.731 20.031 76.6416 19.5527 76.2966 19.3071C76.0027 19.1131 75.6194 19.1519 75.3639 19.3975C75.3383 19.4234 75.2616 19.488 75.2616 19.501L75.2489 19.5139C75.0316 19.6949 74.7889 19.85 74.5205 19.9405C74.2394 20.044 73.9456 20.0957 73.6389 20.0827C73.3578 20.0827 73.0895 20.044 72.8212 19.9535C72.5656 19.863 72.3228 19.7466 72.1056 19.5785C71.8884 19.4234 71.6968 19.2295 71.5434 19.0097C71.3773 18.7899 71.2623 18.5314 71.1857 18.2728H76.9355C77.1399 18.2728 77.3316 18.1952 77.4721 18.053C77.6254 17.9108 77.7021 17.7169 77.6893 17.51C77.7021 16.9541 77.5999 16.4111 77.4082 15.9069ZM71.1857 16.7343C71.2623 16.4628 71.3773 16.2172 71.5434 15.9974C71.6968 15.7776 71.8884 15.5837 72.1056 15.4286C72.3228 15.2734 72.5656 15.1442 72.8212 15.0537C73.0767 14.9632 73.3578 14.9244 73.6261 14.9244C73.8945 14.9244 74.1756 14.9632 74.4311 15.0537C74.9422 15.2217 75.3894 15.5579 75.7088 15.9974C75.8749 16.2172 75.9899 16.4758 76.0794 16.7343H71.1857ZM81.8675 20.4835C81.5736 20.4835 81.3437 20.7292 81.3437 21.0265C81.3437 21.3239 81.5864 21.5566 81.8803 21.5566C82.1742 21.5566 82.4042 21.3109 82.4042 21.0265C82.4042 20.7162 82.1614 20.4835 81.8675 20.4835ZM81.8675 21.4402C81.6375 21.4531 81.4459 21.2721 81.4331 21.0394C81.4203 20.8067 81.5992 20.6128 81.8292 20.5999C82.0592 20.5869 82.2508 20.7679 82.2636 21.0007V21.0265C82.2764 21.2463 82.0975 21.4402 81.8675 21.4402Z" fill="#0091E2"/>
<path d="M81.9953 21.0265C82.0592 21.0136 82.0975 20.9619 82.0975 20.8972C82.0975 20.8455 82.0847 20.8067 82.0464 20.7809C81.9953 20.755 81.9314 20.7421 81.8675 20.7421C81.8036 20.7421 81.727 20.7421 81.6631 20.755V21.2851H81.7781V21.0782H81.8292C81.8931 21.0782 81.9314 21.1041 81.9442 21.1558C81.957 21.1946 81.9697 21.2463 81.9825 21.2851H82.1103C82.0847 21.2463 82.072 21.1946 82.072 21.1558C82.0847 21.1041 82.0464 21.0524 81.9953 21.0265ZM81.842 20.9877H81.7781V20.8326H81.842C81.9186 20.8326 81.957 20.8714 81.957 20.9101C81.9697 20.9619 81.9059 21.0006 81.842 20.9877ZM35.2813 11.563C35.2046 11.4984 34.5147 10.9683 33.0325 10.9683C32.6492 10.9683 32.2531 11.0071 31.8698 11.0717C31.5887 9.09373 29.9659 8.13704 29.902 8.08532L29.5059 7.85262L29.2504 8.22753C28.931 8.73174 28.6882 9.30058 28.5476 9.88235C28.2793 11.0071 28.4454 12.0672 29.0076 12.9722C28.3304 13.36 27.2316 13.4505 27.0016 13.4635H8.85775C8.38499 13.4635 8.00167 13.8513 8.00167 14.3297C7.97611 15.9328 8.24444 17.5359 8.79386 19.0485C9.41995 20.7033 10.3527 21.9315 11.5538 22.6813C12.9082 23.5217 15.1187 24 17.6102 24C18.7346 24 19.859 23.8966 20.9707 23.6897C22.5167 23.4053 23.9989 22.8623 25.3661 22.0737C26.4905 21.4143 27.4999 20.574 28.356 19.5915C29.7998 17.9496 30.6559 16.1138 31.282 14.4848H31.5375C33.1092 14.4848 34.0802 13.8513 34.6169 13.3083C34.9747 12.9722 35.243 12.5585 35.4346 12.0931L35.5496 11.7569L35.2813 11.563Z" fill="#0091E2"/>
<path d="M10.5443 12.9334H12.972C13.087 12.9334 13.1892 12.8429 13.1892 12.7136V10.5158C13.1892 10.3995 13.0998 10.2961 12.972 10.2961H10.5443C10.4293 10.2961 10.3271 10.3866 10.3271 10.5158V12.7136C10.3399 12.8429 10.4293 12.9334 10.5443 12.9334ZM13.892 12.9334H16.3197C16.4347 12.9334 16.5369 12.8429 16.5369 12.7136V10.5158C16.5369 10.3995 16.4475 10.2961 16.3197 10.2961H13.892C13.777 10.2961 13.6748 10.3866 13.6748 10.5158V12.7136C13.6876 12.8429 13.777 12.9334 13.892 12.9334ZM17.3036 12.9334H19.7312C19.8462 12.9334 19.9485 12.8429 19.9485 12.7136V10.5158C19.9485 10.3995 19.859 10.2961 19.7312 10.2961H17.3036C17.1886 10.2961 17.0863 10.3866 17.0863 10.5158V12.7136C17.0863 12.8429 17.1758 12.9334 17.3036 12.9334ZM20.664 12.9334H23.0917C23.2067 12.9334 23.3089 12.8429 23.3089 12.7136V10.5158C23.3089 10.3995 23.2195 10.2961 23.0917 10.2961H20.664C20.549 10.2961 20.4468 10.3866 20.4468 10.5158V12.7136C20.4468 12.8429 20.549 12.9334 20.664 12.9334ZM13.892 9.79185H16.3197C16.4347 9.79185 16.5369 9.68843 16.5369 9.57207V7.37427C16.5369 7.25792 16.4475 7.15449 16.3197 7.15449H13.892C13.777 7.15449 13.6748 7.24499 13.6748 7.37427V9.57207C13.6876 9.68843 13.777 9.79185 13.892 9.79185ZM17.3036 9.79185H19.7312C19.8462 9.79185 19.9485 9.68843 19.9485 9.57207V7.37427C19.9485 7.25792 19.859 7.15449 19.7312 7.15449H17.3036C17.1886 7.15449 17.0863 7.24499 17.0863 7.37427V9.57207C17.0863 9.68843 17.1758 9.79185 17.3036 9.79185ZM20.664 9.79185H23.0917C23.2067 9.79185 23.3089 9.68843 23.3089 9.57207V7.37427C23.3089 7.25792 23.2067 7.15449 23.0917 7.15449H20.664C20.549 7.15449 20.4468 7.24499 20.4468 7.37427V9.57207C20.4468 9.68843 20.549 9.79185 20.664 9.79185ZM20.664 6.63736H23.0917C23.2067 6.63736 23.3089 6.54686 23.3089 6.41758V4.21978C23.3089 4.10343 23.2067 4 23.0917 4H20.664C20.549 4 20.4468 4.0905 20.4468 4.21978V6.41758C20.4468 6.53394 20.549 6.63736 20.664 6.63736ZM24.05 12.9334H26.4777C26.5927 12.9334 26.6949 12.8429 26.6949 12.7136V10.5158C26.6949 10.3995 26.6055 10.2961 26.4777 10.2961H24.05C23.935 10.2961 23.8328 10.3866 23.8328 10.5158V12.7136C23.8456 12.8429 23.935 12.9334 24.05 12.9334Z" fill="#0091E2"/>
<path d="M101.819 15.436V18.748C101.819 19.2707 101.755 19.6653 101.627 19.932C101.51 20.2093 101.302 20.4013 101.003 20.508C100.705 20.6147 100.257 20.6733 99.6592 20.684C99.2325 20.684 98.7205 20.6467 98.1232 20.572L97.7552 18.732C98.2992 18.8067 98.8112 18.844 99.2912 18.844C99.5365 18.844 99.6965 18.8013 99.7712 18.716C99.8458 18.62 99.8832 18.4493 99.8832 18.204V15.596L95.9312 15.932L94.7312 16.06L94.3792 14.172C94.6565 14.1507 94.8965 14.124 95.0992 14.092C95.3125 14.0493 95.5792 13.9853 95.8992 13.9C96.9018 13.6013 98.1392 12.956 99.6112 11.964C98.1285 12.1453 97.0778 12.268 96.4592 12.332C96.4805 12.332 96.1658 12.3693 95.5152 12.444L95.0992 12.492L94.7312 10.796C95.0298 10.7427 95.2592 10.6893 95.4192 10.636C95.5898 10.5827 95.7658 10.5187 95.9472 10.444C96.5445 10.1667 97.3712 9.60133 98.4272 8.748C96.9978 8.844 95.6752 8.908 94.4592 8.94L94.2352 7.196C96.0378 7.17467 98.1178 7.068 100.475 6.876C102.843 6.684 104.827 6.45467 106.427 6.188L106.795 7.948C105.473 8.15067 103.547 8.35333 101.019 8.556C99.9845 9.516 99.0992 10.236 98.3632 10.716C99.5365 10.62 100.694 10.5027 101.835 10.364C102.731 9.64933 103.403 9.07867 103.851 8.652L105.403 9.788C104.39 10.6947 103.318 11.5427 102.187 12.332C101.067 13.1213 100.022 13.7347 99.0512 14.172C100.651 14.0333 102.251 13.8733 103.851 13.692C103.521 13.3293 103.222 13.0147 102.955 12.748L104.347 11.66C105.339 12.6733 106.438 13.8573 107.643 15.212L106.251 16.428L105.979 16.108C105.649 15.7133 105.361 15.388 105.115 15.132L101.819 15.436ZM103.899 15.916C104.966 16.588 106.369 17.5427 108.107 18.78L107.067 20.364C106.47 19.9053 105.755 19.3933 104.923 18.828C104.102 18.2627 103.403 17.804 102.827 17.452L103.899 15.916ZM98.4112 17.484C96.8325 18.796 95.4512 19.772 94.2672 20.412L93.2432 18.78C94.7152 18.012 96.0272 17.1053 97.1792 16.06L98.4112 17.484ZM121.483 6.268H123.387V18.604C123.387 19.372 123.217 19.9213 122.875 20.252C122.545 20.5827 121.947 20.7533 121.083 20.764C120.433 20.7747 119.734 20.748 118.987 20.684L118.635 18.748C119.35 18.8333 120.017 18.876 120.635 18.876C120.966 18.876 121.19 18.812 121.307 18.684C121.425 18.5453 121.483 18.2893 121.483 17.916V6.268ZM109.739 8.556V6.684H117.643V8.556H114.059C113.921 9.1 113.761 9.628 113.579 10.14H117.243V11.916C116.923 13.2387 116.502 14.412 115.979 15.436C115.457 16.46 114.779 17.42 113.947 18.316C113.126 19.212 112.081 20.124 110.811 21.052L109.531 19.436C110.395 18.8493 111.131 18.2893 111.739 17.756C112.358 17.212 112.886 16.6627 113.323 16.108C112.811 15.6493 112.203 15.132 111.499 14.556C111.115 15.164 110.689 15.7507 110.219 16.316L108.987 14.812C109.606 14.012 110.209 13.0307 110.795 11.868C111.382 10.6947 111.803 9.59067 112.059 8.556H109.739ZM118.267 7.724H120.187V17.036H118.267V7.724ZM112.875 11.964C112.822 12.1027 112.678 12.4173 112.443 12.908C113.307 13.612 113.947 14.1453 114.363 14.508C114.737 13.772 115.057 12.924 115.323 11.964H112.875Z" fill="black"/>
</svg>
