<svg width="132" height="29" viewBox="0 0 132 29" fill="none" xmlns="http://www.w3.org/2000/svg">
<rect width="132" height="29" fill="white"/>
<path d="M18 24.5C23.5228 24.5 28 20.0228 28 14.5C28 8.97715 23.5228 4.5 18 4.5C12.4772 4.5 8 8.97715 8 14.5C8 20.0228 12.4772 24.5 18 24.5Z" fill="#FFCE52"/>
<path d="M23.913 12.7174C23.1304 12.3261 22.2174 12.3261 20.6087 12.3261C20.3478 12.3261 20.1739 12.1522 20.1739 11.8913C20.1739 10.8913 21.7391 9.71739 23.6522 9.71739V10.587C22.7826 10.5435 21.9565 10.8913 21.3044 11.4565C22.6522 11.4565 23.4783 11.5435 24.3044 11.9348L23.913 12.7174Z" fill="#273941"/>
<path d="M12.087 12.7174L11.6956 11.9348C12.5217 11.5 13.3478 11.4565 14.6956 11.4565C14.0435 10.8913 13.2174 10.587 12.3478 10.587V9.71739C14.2609 9.71739 15.8261 10.8913 15.8261 11.8913C15.8261 12.1522 15.6522 12.3261 15.3913 12.3261C13.7826 12.3261 12.8696 12.3261 12.087 12.7174Z" fill="#273941"/>
<path d="M24.9565 14.9348C24.9565 16.3261 24.4348 17.6739 23.5217 18.6739C22.6087 19.6304 21.4783 20.3261 20.1739 20.6739V18.8478C20.1739 18.3696 19.7826 17.9783 19.3044 17.9783H16.6957C16.2174 17.9783 15.8261 18.3696 15.8261 18.8478V20.7174C13.3044 19.9783 11.0435 17.9783 11.0435 14.9348C11.2609 14.9348 12.0435 15.1522 13.2174 15.3696C14.7826 15.6739 16.3913 15.8043 18 15.8043C20.3478 15.8043 22.6957 15.5 24.9565 14.9348Z" fill="#273941"/>
<path d="M18 17.9783H19.3043C19.7826 17.9783 20.1739 18.3696 20.1739 18.8478V21.0217C20.1739 22.2391 19.2174 23.1957 18 23.1957C16.7826 23.1957 15.8261 22.2391 15.8261 21.0217V18.8478C15.8261 18.3696 16.2174 17.9783 16.6956 17.9783H18Z" fill="#CF4054"/>
<path d="M18 5.80435C23.3043 5.80435 27.5652 9.5 27.5652 14.0652H28C27.7391 8.54348 23.0435 4.28261 17.5217 4.54348C12.3913 4.80435 8.26087 8.8913 8 14.0652H8.43478C8.43478 9.5 12.7391 5.80435 18 5.80435Z" fill="#FFE369"/>
<path d="M27.5652 14.0652C27.5652 18.6304 23.3043 22.3261 18 22.3261C12.6957 22.3261 8.43478 18.6304 8.43478 14.0652H8C8 14.1957 8 14.3696 8 14.5C8 20.0217 12.4783 24.5 18 24.5C23.5217 24.5 28 20.0217 28 14.5C28 14.3696 28 14.1957 28 14.0652H27.5652Z" fill="#FFB32B"/>
<path d="M23.9914 8.31569C24.1272 8.1798 24.0858 7.91827 23.899 7.73156C23.7121 7.54484 23.4506 7.50364 23.3148 7.63953C23.179 7.77542 23.2204 8.03694 23.4072 8.22366C23.5941 8.41038 23.8556 8.45158 23.9914 8.31569Z" fill="#F6FAFD"/>
<path d="M21.104 6.21944C21.1719 6.15149 21.1444 6.01385 21.0424 5.912C20.9405 5.81016 20.8029 5.78268 20.735 5.85062C20.6671 5.91857 20.6947 6.05621 20.7966 6.15806C20.8985 6.2599 21.0362 6.28738 21.104 6.21944Z" fill="#F6FAFD"/>
<path d="M23.0559 7.81494C23.3444 7.52618 23.2617 6.97559 22.871 6.58518C22.4803 6.19477 21.9296 6.11238 21.6411 6.40114C21.3525 6.68991 21.4353 7.24049 21.826 7.6309C22.2167 8.02131 22.7673 8.10371 23.0559 7.81494Z" fill="#F6FAFD"/>
<path d="M18 22.3261C16.7826 22.3261 15.8261 21.3696 15.8261 20.1522V21.0217C15.8261 22.2391 16.7826 23.1957 18 23.1957C19.2174 23.1957 20.1739 22.2391 20.1739 21.0217V20.1522C20.1739 21.3696 19.2174 22.3261 18 22.3261Z" fill="#8A293D"/>
<path d="M18 16.6739C20.3044 16.6739 22.6522 16.3696 24.8696 15.8043C24.9131 15.5 24.9565 15.1957 24.9565 14.9348C22.6957 15.5 20.3478 15.8043 18 15.8043C16.3913 15.8043 14.8261 15.6739 13.2174 15.3696C12 15.1522 11.2174 14.9348 11.0435 14.9348C11.0435 15.2391 11.087 15.5 11.1304 15.8043C11.3913 15.8478 12.1304 16.0217 13.2609 16.2391C14.8261 16.5435 16.3913 16.6739 18 16.6739Z" fill="#141E21"/>
<path d="M18 23.1957C16.7826 23.1957 15.8261 22.2391 15.8261 21.0217V21.8913C15.8261 23.1087 16.7826 24.0652 18 24.0652C19.2174 24.0652 20.1739 23.1087 20.1739 21.8913V21.0217C20.1739 22.2391 19.2174 23.1957 18 23.1957Z" fill="#F29410"/>
<path d="M19.3043 17.9783H16.6956C16.2174 17.9783 15.8261 18.3696 15.8261 18.8478V19.7174C15.8261 19.2391 16.2174 18.8478 16.6956 18.8478H16.8696C17.3043 18.8478 17.6956 19.1957 17.7391 19.6304L18 21.8913L18.2609 19.6304C18.3043 19.1957 18.6956 18.8478 19.1304 18.8478H19.3043C19.7826 18.8478 20.1739 19.2391 20.1739 19.7174V18.8478C20.1739 18.3696 19.7826 17.9783 19.3043 17.9783Z" fill="#AE2D4C"/>
<path d="M15.8261 18.8478C15.8261 18.7174 15.8696 18.587 15.9131 18.5C15.6087 18.6304 15.3913 18.9348 15.3913 19.2826V20.5435C15.5218 20.587 15.6957 20.6304 15.8261 20.6739V18.8478Z" fill="#141E21"/>
<path d="M20.0869 18.5C20.1304 18.6304 20.1739 18.7174 20.1739 18.8478V20.7174C20.3043 20.6739 20.4782 20.6304 20.6087 20.587V19.2826C20.6087 18.9348 20.3913 18.6304 20.0869 18.5Z" fill="#141E21"/>
<path d="M40.128 10.208C39.904 10.208 39.7387 10.2613 39.632 10.368C39.536 10.464 39.488 10.624 39.488 10.848V12.56C39.488 12.7307 39.52 12.8533 39.584 12.928C39.6587 12.992 39.7813 13.024 39.952 13.024H42.992C43.2907 13.024 43.5253 13.104 43.696 13.264C43.8667 13.424 43.952 13.6587 43.952 13.968C43.952 14.2667 43.8667 14.5013 43.696 14.672C43.5253 14.832 43.2907 14.912 42.992 14.912H39.952C39.792 14.912 39.6747 14.9493 39.6 15.024C39.5253 15.0987 39.488 15.2107 39.488 15.36V17.472C39.488 17.6853 39.5413 17.8453 39.648 17.952C39.7547 18.0587 39.9147 18.112 40.128 18.112H43.504C43.8133 18.112 44.0427 18.192 44.192 18.352C44.352 18.512 44.432 18.7467 44.432 19.056C44.432 19.3653 44.352 19.6 44.192 19.76C44.0427 19.92 43.8133 20 43.504 20H38.88C38.368 20 37.9893 19.8773 37.744 19.632C37.4987 19.3867 37.376 19.008 37.376 18.496V9.824C37.376 9.312 37.4987 8.93333 37.744 8.688C37.9893 8.44267 38.368 8.32 38.88 8.32H43.504C43.8133 8.32 44.0427 8.4 44.192 8.56C44.352 8.72 44.432 8.95467 44.432 9.264C44.432 9.57333 44.352 9.808 44.192 9.968C44.0427 10.128 43.8133 10.208 43.504 10.208H40.128ZM47.2578 20.112C46.9484 20.112 46.6978 20.0373 46.5058 19.888C46.3244 19.7387 46.2338 19.5093 46.2338 19.2V11.904C46.2338 11.6053 46.3191 11.3867 46.4898 11.248C46.6711 11.1093 46.8951 11.04 47.1618 11.04C47.4604 11.04 47.6898 11.1147 47.8498 11.264C48.0098 11.4133 48.0898 11.6213 48.0898 11.888V12.144C48.2391 11.7813 48.4258 11.5093 48.6498 11.328C48.8844 11.136 49.1884 11.04 49.5618 11.04C49.9458 11.04 50.2658 11.136 50.5218 11.328C50.7884 11.5093 50.9804 11.7653 51.0978 12.096C51.2364 11.7653 51.4391 11.5093 51.7058 11.328C51.9724 11.136 52.3191 11.04 52.7458 11.04C53.0231 11.04 53.2738 11.088 53.4978 11.184C53.7324 11.28 53.9244 11.4187 54.0738 11.6C54.2338 11.7707 54.3511 11.984 54.4258 12.24C54.5111 12.4853 54.5538 12.7627 54.5538 13.072V19.2C54.5538 19.5093 54.4631 19.7387 54.2818 19.888C54.1004 20.0373 53.8604 20.112 53.5618 20.112C53.2631 20.112 53.0178 20.0373 52.8258 19.888C52.6338 19.7387 52.5378 19.504 52.5378 19.184V13.632C52.5378 13.44 52.4898 13.2587 52.3938 13.088C52.2978 12.9067 52.1378 12.816 51.9138 12.816C51.7004 12.816 51.5458 12.9067 51.4498 13.088C51.3644 13.2587 51.3218 13.44 51.3218 13.632V19.28C51.3218 19.568 51.2364 19.7813 51.0658 19.92C50.8951 20.048 50.6711 20.112 50.3938 20.112C50.1164 20.112 49.8924 20.048 49.7218 19.92C49.5511 19.7813 49.4658 19.568 49.4658 19.28V13.632C49.4658 13.4507 49.4231 13.2693 49.3378 13.088C49.2524 12.9067 49.0978 12.816 48.8738 12.816C48.6498 12.816 48.4898 12.9067 48.3938 13.088C48.2978 13.2587 48.2498 13.44 48.2498 13.632V19.184C48.2498 19.504 48.1591 19.7387 47.9778 19.888C47.7964 20.0373 47.5564 20.112 47.2578 20.112ZM59.9875 20.16C59.3368 20.16 58.7715 20.0427 58.2915 19.808C57.8222 19.5627 57.4275 19.232 57.1075 18.816C56.7875 18.4 56.5475 17.9147 56.3875 17.36C56.2382 16.8053 56.1635 16.2187 56.1635 15.6C56.1635 14.9707 56.2382 14.384 56.3875 13.84C56.5475 13.2853 56.7822 12.8 57.0915 12.384C57.4115 11.968 57.8115 11.6427 58.2915 11.408C58.7715 11.1627 59.3368 11.04 59.9875 11.04C60.6382 11.04 61.2035 11.1627 61.6835 11.408C62.1635 11.6427 62.5582 11.968 62.8675 12.384C63.1875 12.7893 63.4222 13.2693 63.5715 13.824C63.7315 14.3787 63.8115 14.9707 63.8115 15.6C63.8115 16.2187 63.7315 16.8053 63.5715 17.36C63.4222 17.9147 63.1875 18.4 62.8675 18.816C62.5582 19.232 62.1635 19.5627 61.6835 19.808C61.2035 20.0427 60.6382 20.16 59.9875 20.16ZM59.9875 18.32C60.2755 18.32 60.5262 18.2507 60.7395 18.112C60.9635 17.9733 61.1448 17.7813 61.2835 17.536C61.4222 17.28 61.5235 16.9867 61.5875 16.656C61.6622 16.3253 61.6995 15.9733 61.6995 15.6C61.6995 15.216 61.6675 14.8587 61.6035 14.528C61.5395 14.1973 61.4328 13.9093 61.2835 13.664C61.1448 13.4187 60.9688 13.2267 60.7555 13.088C60.5422 12.9493 60.2862 12.88 59.9875 12.88C59.6888 12.88 59.4328 12.9493 59.2195 13.088C59.0062 13.2267 58.8248 13.424 58.6755 13.68C58.5368 13.9253 58.4355 14.2133 58.3715 14.544C58.3075 14.8747 58.2755 15.2267 58.2755 15.6C58.2755 15.9733 58.3075 16.3253 58.3715 16.656C58.4462 16.9867 58.5528 17.28 58.6915 17.536C58.8302 17.7813 59.0062 17.9733 59.2195 18.112C59.4435 18.2507 59.6995 18.32 59.9875 18.32Z" fill="#D74156"/>
<path d="M69.9813 14.288C69.9813 14.0107 69.9173 13.808 69.7893 13.68C69.6613 13.5413 69.4586 13.472 69.1813 13.472H67.5013C67.2026 13.472 66.9679 13.392 66.7973 13.232C66.6373 13.0613 66.5573 12.8213 66.5573 12.512C66.5573 12.192 66.6426 11.9467 66.8133 11.776C66.9839 11.6053 67.2346 11.52 67.5653 11.52H70.3653C70.9519 11.52 71.3893 11.664 71.6773 11.952C71.9653 12.24 72.1093 12.672 72.1093 13.248V19.648C72.1093 20.3733 72.0399 21.0187 71.9013 21.584C71.7626 22.1493 71.5439 22.624 71.2453 23.008C70.9573 23.392 70.5786 23.68 70.1093 23.872C69.6506 24.0747 69.0959 24.176 68.4453 24.176C68.2426 24.176 68.0239 24.1547 67.7893 24.112C67.5546 24.08 67.3146 24.0107 67.0693 23.904C66.8346 23.7973 66.5893 23.648 66.3333 23.456C66.0773 23.2747 65.8159 23.0347 65.5493 22.736C65.4533 22.64 65.3786 22.5227 65.3253 22.384C65.2826 22.256 65.2613 22.1387 65.2613 22.032C65.2613 21.904 65.2879 21.7707 65.3413 21.632C65.4053 21.504 65.4799 21.3867 65.5653 21.28C65.6506 21.1733 65.7573 21.0827 65.8853 21.008C66.0239 20.944 66.1679 20.912 66.3173 20.912C66.4773 20.912 66.6213 20.96 66.7493 21.056C66.8773 21.152 67.0159 21.2693 67.1653 21.408C67.3253 21.5893 67.5119 21.7707 67.7253 21.952C67.9386 22.1333 68.2106 22.224 68.5413 22.224C68.7653 22.224 68.9679 22.1813 69.1493 22.096C69.3306 22.0107 69.4799 21.872 69.5973 21.68C69.7253 21.4987 69.8213 21.2693 69.8853 20.992C69.9493 20.7147 69.9813 20.3787 69.9813 19.984V14.288ZM69.1333 8.624C69.1333 8.176 69.2666 7.81867 69.5333 7.552C69.8106 7.27467 70.1733 7.136 70.6213 7.136C71.0693 7.136 71.4266 7.26933 71.6933 7.536C71.9599 7.80267 72.0933 8.16 72.0933 8.608C72.0933 9.056 71.9599 9.41867 71.6933 9.696C71.4266 9.96267 71.0693 10.096 70.6213 10.096C70.1733 10.096 69.8106 9.96267 69.5333 9.696C69.2666 9.42933 69.1333 9.072 69.1333 8.624ZM76.535 20C76.215 20 75.9697 19.92 75.799 19.76C75.639 19.5893 75.559 19.344 75.559 19.024C75.559 18.704 75.639 18.464 75.799 18.304C75.959 18.1333 76.199 18.048 76.519 18.048H78.103C78.2523 18.048 78.359 18.016 78.423 17.952C78.4977 17.8773 78.535 17.7653 78.535 17.616V14.288C78.535 14.0107 78.4657 13.808 78.327 13.68C78.199 13.5413 78.0017 13.472 77.735 13.472H76.887C76.5563 13.472 76.3057 13.392 76.135 13.232C75.9643 13.0613 75.879 12.8267 75.879 12.528C75.879 12.1973 75.9643 11.9467 76.135 11.776C76.3057 11.6053 76.5563 11.52 76.887 11.52H78.919C79.5057 11.52 79.9377 11.664 80.215 11.952C80.503 12.24 80.647 12.672 80.647 13.248V17.616C80.647 17.7653 80.6843 17.8773 80.759 17.952C80.8337 18.016 80.9403 18.048 81.079 18.048H82.359C82.6683 18.048 82.903 18.1333 83.063 18.304C83.2337 18.464 83.319 18.704 83.319 19.024C83.319 19.344 83.2337 19.5893 83.063 19.76C82.903 19.92 82.663 20 82.343 20H76.535ZM77.687 8.624C77.687 8.176 77.8203 7.81867 78.087 7.552C78.3643 7.27467 78.727 7.136 79.175 7.136C79.623 7.136 79.9803 7.26933 80.247 7.536C80.5137 7.80267 80.647 8.16 80.647 8.608C80.647 9.056 80.5137 9.41867 80.247 9.696C79.9803 9.96267 79.623 10.096 79.175 10.096C78.727 10.096 78.3643 9.96267 78.087 9.696C77.8203 9.42933 77.687 9.072 77.687 8.624Z" fill="#FFCE52"/>
<path d="M101.152 15.936V19.248C101.152 19.7707 101.088 20.1653 100.96 20.432C100.843 20.7093 100.635 20.9013 100.336 21.008C100.037 21.1147 99.5893 21.1733 98.992 21.184C98.5653 21.184 98.0533 21.1467 97.456 21.072L97.088 19.232C97.632 19.3067 98.144 19.344 98.624 19.344C98.8693 19.344 99.0293 19.3013 99.104 19.216C99.1787 19.12 99.216 18.9493 99.216 18.704V16.096L95.264 16.432L94.064 16.56L93.712 14.672C93.9893 14.6507 94.2293 14.624 94.432 14.592C94.6453 14.5493 94.912 14.4853 95.232 14.4C96.2347 14.1013 97.472 13.456 98.944 12.464C97.4613 12.6453 96.4107 12.768 95.792 12.832C95.8133 12.832 95.4987 12.8693 94.848 12.944L94.432 12.992L94.064 11.296C94.3627 11.2427 94.592 11.1893 94.752 11.136C94.9227 11.0827 95.0987 11.0187 95.28 10.944C95.8773 10.6667 96.704 10.1013 97.76 9.248C96.3307 9.344 95.008 9.408 93.792 9.44L93.568 7.696C95.3707 7.67467 97.4507 7.568 99.808 7.376C102.176 7.184 104.16 6.95467 105.76 6.688L106.128 8.448C104.805 8.65067 102.88 8.85333 100.352 9.056C99.3173 10.016 98.432 10.736 97.696 11.216C98.8693 11.12 100.027 11.0027 101.168 10.864C102.064 10.1493 102.736 9.57867 103.184 9.152L104.736 10.288C103.723 11.1947 102.651 12.0427 101.52 12.832C100.4 13.6213 99.3547 14.2347 98.384 14.672C99.984 14.5333 101.584 14.3733 103.184 14.192C102.853 13.8293 102.555 13.5147 102.288 13.248L103.68 12.16C104.672 13.1733 105.771 14.3573 106.976 15.712L105.584 16.928L105.312 16.608C104.981 16.2133 104.693 15.888 104.448 15.632L101.152 15.936ZM103.232 16.416C104.299 17.088 105.701 18.0427 107.44 19.28L106.4 20.864C105.803 20.4053 105.088 19.8933 104.256 19.328C103.435 18.7627 102.736 18.304 102.16 17.952L103.232 16.416ZM97.744 17.984C96.1653 19.296 94.784 20.272 93.6 20.912L92.576 19.28C94.048 18.512 95.36 17.6053 96.512 16.56L97.744 17.984ZM120.816 6.768H122.72V19.104C122.72 19.872 122.549 20.4213 122.208 20.752C121.877 21.0827 121.28 21.2533 120.416 21.264C119.765 21.2747 119.067 21.248 118.32 21.184L117.968 19.248C118.683 19.3333 119.349 19.376 119.968 19.376C120.299 19.376 120.523 19.312 120.64 19.184C120.757 19.0453 120.816 18.7893 120.816 18.416V6.768ZM109.072 9.056V7.184H116.976V9.056H113.392C113.253 9.6 113.093 10.128 112.912 10.64H116.576V12.416C116.256 13.7387 115.835 14.912 115.312 15.936C114.789 16.96 114.112 17.92 113.28 18.816C112.459 19.712 111.413 20.624 110.144 21.552L108.864 19.936C109.728 19.3493 110.464 18.7893 111.072 18.256C111.691 17.712 112.219 17.1627 112.656 16.608C112.144 16.1493 111.536 15.632 110.832 15.056C110.448 15.664 110.021 16.2507 109.552 16.816L108.32 15.312C108.939 14.512 109.541 13.5307 110.128 12.368C110.715 11.1947 111.136 10.0907 111.392 9.056H109.072ZM117.6 8.224H119.52V17.536H117.6V8.224ZM112.208 12.464C112.155 12.6027 112.011 12.9173 111.776 13.408C112.64 14.112 113.28 14.6453 113.696 15.008C114.069 14.272 114.389 13.424 114.656 12.464H112.208Z" fill="black"/>
</svg>
