<svg width="111" height="28" viewBox="0 0 111 28" fill="none" xmlns="http://www.w3.org/2000/svg">
<rect width="110.434" height="28" fill="white"/>
<path d="M11.1401 14.4771V11.9333H14.7917V9.2199H11.1401V6.7134H15.5891V4H8V5.3567V6.7134V14.4771V15.8338V17.1905H16.1498V14.4771H11.1401Z" fill="#D74156"/>
<path d="M29.7044 4L25.8723 12.3573L21.9685 4H18.9752L18.1498 17.0967L21.0601 17.2832L21.5221 9.94573L25.2006 17.1532H26.5811L30.2147 9.89259L30.6981 17.2866L33.6072 17.0944L32.7515 4H29.7044Z" fill="black"/>
<path d="M42.5245 17.9446C46.3442 17.9446 49.4407 14.823 49.4407 10.9723C49.4407 7.12161 46.3442 4 42.5245 4C38.7048 4 35.6084 7.12161 35.6084 10.9723C35.6084 14.823 38.7048 17.9446 42.5245 17.9446Z" fill="#FFCE52"/>
<path d="M46.6134 9.72866C46.0717 9.45619 45.4403 9.45619 44.3278 9.45619C44.1472 9.45619 44.0273 9.33522 44.0273 9.15319C44.0273 8.45562 45.1095 7.63708 46.4328 7.63708V8.24307C45.8317 8.21255 45.2598 8.45562 44.8089 8.84907C45.7409 8.84907 46.3128 8.91012 46.8837 9.18259L46.6134 9.72866Z" fill="#273941"/>
<path d="M38.4344 9.72866L38.1642 9.18259C38.735 8.87959 39.3069 8.84907 40.2389 8.84907C39.7881 8.45449 39.2161 8.24307 38.615 8.24307V7.63708C39.9383 7.63708 41.0206 8.45562 41.0206 9.15319C41.0206 9.33522 40.9006 9.45619 40.72 9.45619C39.6075 9.45619 38.9761 9.45619 38.4344 9.72866Z" fill="#273941"/>
<path d="M47.3356 11.2753C47.3356 12.2453 46.9745 13.1848 46.3431 13.8824C45.7117 14.5495 44.93 15.0345 44.0284 15.2764V14.0034C44.0284 13.6699 43.7581 13.3974 43.4272 13.3974H41.6228C41.2919 13.3974 41.0217 13.6699 41.0217 14.0034V15.307C39.2778 14.7914 37.7144 13.3974 37.7144 11.2753C37.8647 11.2753 38.4064 11.4268 39.2183 11.5783C40.3006 11.7908 41.4131 11.8813 42.5256 11.8813C44.1495 11.8813 45.7734 11.6687 47.3367 11.2753H47.3356Z" fill="#273941"/>
<path d="M42.5245 13.3974H43.4261C43.757 13.3974 44.0273 13.6699 44.0273 14.0034V15.5195C44.0273 16.3686 43.3656 17.0356 42.5233 17.0356C41.6811 17.0356 41.0194 16.3686 41.0194 15.5195V14.0034C41.0194 13.6699 41.2897 13.3974 41.6206 13.3974H42.5222H42.5245Z" fill="#CF4054"/>
<path d="M42.5244 4.90899C46.1928 4.90899 49.1401 7.48558 49.1401 10.6682H49.4406C49.2601 6.81854 46.0123 3.84737 42.1936 4.02939C38.6452 4.21142 35.7888 7.06048 35.6083 10.6682H35.9088C35.9088 7.48558 38.8852 4.90899 42.5244 4.90899Z" fill="#FFE369"/>
<path d="M49.139 10.6693C49.139 13.8519 46.1917 16.4285 42.5233 16.4285C38.855 16.4285 35.9077 13.8519 35.9077 10.6693H35.6072V10.9723C35.6072 14.8219 38.7047 17.9446 42.5233 17.9446C46.342 17.9446 49.4395 14.8219 49.4395 10.9723V10.6693H49.139Z" fill="#FFB32B"/>
<path d="M46.6683 6.66019C46.7624 6.56523 46.7339 6.3827 46.6047 6.25249C46.4754 6.12229 46.2944 6.09372 46.2002 6.18868C46.1061 6.28364 46.1346 6.46617 46.2638 6.59637C46.393 6.72657 46.5741 6.75515 46.6683 6.66019Z" fill="#F6FAFD"/>
<path d="M44.6709 5.19954C44.7178 5.15228 44.6986 5.05637 44.6281 4.98531C44.5575 4.91425 44.4624 4.89495 44.4155 4.94221C44.3687 4.98947 44.3879 5.08539 44.4584 5.15645C44.5289 5.22751 44.6241 5.2468 44.6709 5.19954Z" fill="#F6FAFD"/>
<path d="M46.021 6.31134C46.2207 6.10993 46.1634 5.7259 45.8931 5.45358C45.6227 5.18126 45.2418 5.12377 45.0421 5.32517C44.8425 5.52657 44.8998 5.9106 45.1701 6.18293C45.4404 6.45525 45.8214 6.51274 46.021 6.31134Z" fill="#F6FAFD"/>
<path d="M42.5244 16.4285C41.6822 16.4285 41.0205 15.7614 41.0205 14.9124V15.5184C41.0205 16.3674 41.6822 17.0345 42.5244 17.0345C43.3667 17.0345 44.0283 16.3674 44.0283 15.5184V14.9124C44.0283 15.7614 43.3667 16.4285 42.5244 16.4285Z" fill="#8A293D"/>
<path d="M42.5244 12.4873C44.1181 12.4873 45.742 12.2747 47.275 11.8813C47.3053 11.6687 47.3356 11.4573 47.3356 11.2753C45.7722 11.6699 44.1483 11.8813 42.5244 11.8813C41.4119 11.8813 40.3297 11.7908 39.2172 11.5783C38.375 11.4268 37.8344 11.2753 37.7133 11.2753C37.7133 11.4878 37.7436 11.6699 37.7738 11.8813C37.9544 11.9118 38.4658 12.0328 39.2475 12.1843C40.3297 12.3968 41.4119 12.4873 42.5244 12.4873Z" fill="#141E21"/>
<path d="M42.5244 17.0345C41.6822 17.0345 41.0205 16.3674 41.0205 15.5184V16.1244C41.0205 16.9734 41.6822 17.6405 42.5244 17.6405C43.3667 17.6405 44.0283 16.9734 44.0283 16.1244V15.5184C44.0283 16.3674 43.3667 17.0345 42.5244 17.0345Z" fill="#F29410"/>
<path d="M43.4261 13.3974H41.6217C41.2908 13.3974 41.0205 13.6699 41.0205 14.0034V14.6094C41.0205 14.2759 41.2908 14.0034 41.6217 14.0034H41.7416C42.0422 14.0034 42.3125 14.2453 42.3428 14.5495L42.5233 16.1255L42.7039 14.5495C42.7342 14.2465 43.0044 14.0034 43.305 14.0034H43.425C43.7558 14.0034 44.0261 14.2759 44.0261 14.6094V14.0034C44.0261 13.6699 43.7558 13.3974 43.425 13.3974H43.4261Z" fill="#AE2D4C"/>
<path d="M41.0206 14.0034C41.0206 13.9129 41.0508 13.8214 41.0811 13.7614C40.8703 13.8519 40.72 14.0644 40.72 14.3075V15.1871C40.8097 15.2176 40.9308 15.2482 41.0206 15.2776V14.0045V14.0034Z" fill="#141E21"/>
<path d="M43.9678 13.7603C43.9981 13.8508 44.0284 13.9118 44.0284 14.0023V15.3058C44.1181 15.2753 44.2392 15.2448 44.3289 15.2154V14.3064C44.3289 14.0644 44.1786 13.8519 43.9678 13.7603Z" fill="#141E21"/>
<path d="M53.1285 19.7298L51.4406 17.0605L52.9434 16.0938C53.7015 15.6066 54.1535 14.7744 54.1535 13.8689V4H57.2936V13.87C57.2936 15.8632 56.2989 17.6925 54.6313 18.7643L53.1285 19.7298Z" fill="black"/>
<path d="M62.4338 4H59.2936V17.134H62.4338V4Z" fill="#0091E2"/>
<path d="M43.3207 20.8728C43.5585 20.8728 43.766 20.9146 43.9431 20.9972C44.1203 21.0797 44.2583 21.1962 44.3547 21.3465C44.4512 21.4969 44.5005 21.6721 44.5005 21.8734C44.5005 22.0746 44.4523 22.2453 44.3547 22.3957C44.2572 22.5461 44.1203 22.6614 43.9431 22.7428C43.766 22.8242 43.5585 22.8649 43.3207 22.8649H42.8822V23.8971H42.2878V20.8739H43.3207V20.8728ZM43.2557 22.3561C43.4418 22.3561 43.5899 22.3154 43.702 22.234C43.8142 22.1526 43.8702 22.0328 43.8702 21.8722C43.8702 21.7117 43.8142 21.5907 43.702 21.5071C43.5899 21.4234 43.4407 21.3816 43.2557 21.3816H42.8833V22.3561H43.2557Z" fill="black"/>
<path d="M47.4913 23.8971L46.7826 23.8926L46.0536 22.8061H45.5949V23.896H45.0005V20.8728H46.0368C46.2712 20.8728 46.4775 20.9124 46.6558 20.9927C46.833 21.0729 46.9698 21.186 47.0652 21.333C47.1605 21.4799 47.2087 21.6484 47.2087 21.8383C47.2087 22.0283 47.1594 22.2001 47.0607 22.346C46.962 22.4918 46.824 22.6037 46.6469 22.6806L47.4913 23.8949V23.8971ZM45.5949 21.3816V22.2985H45.9672C46.1422 22.2985 46.288 22.2612 46.4035 22.1854C46.519 22.1097 46.5773 21.9943 46.5773 21.8406C46.5773 21.6868 46.5201 21.5681 46.4057 21.4935C46.2913 21.4189 46.1444 21.3816 45.9672 21.3816H45.5949Z" fill="black"/>
<path d="M48.1797 21.6032C48.3053 21.3669 48.4769 21.1849 48.6934 21.0605C48.9109 20.935 49.1532 20.8728 49.4201 20.8728C49.687 20.8728 49.9304 20.935 50.1468 21.0605C50.3644 21.186 50.536 21.3669 50.6627 21.6032C50.7894 21.8395 50.8534 22.1165 50.8534 22.433C50.8534 22.7496 50.7894 23.0311 50.6627 23.2674C50.536 23.5048 50.3633 23.6857 50.1468 23.8101C49.9293 23.9356 49.687 23.9977 49.4201 23.9977C49.1532 23.9977 48.9098 23.9356 48.6934 23.8101C48.4769 23.6846 48.3053 23.5037 48.1797 23.2674C48.0541 23.0311 47.9913 22.753 47.9913 22.433C47.9913 22.1131 48.0541 21.8395 48.1797 21.6032ZM48.7181 22.9666C48.7853 23.1204 48.8795 23.2402 49.0007 23.3239C49.1218 23.4076 49.262 23.4494 49.4201 23.4494C49.5782 23.4494 49.7184 23.4076 49.8407 23.3239C49.9618 23.2402 50.056 23.1215 50.1233 22.9666C50.1906 22.8118 50.2231 22.6354 50.2231 22.4341C50.2231 22.2329 50.1894 22.0565 50.1233 21.9039C50.0571 21.7513 49.9618 21.6326 49.8407 21.5489C49.7195 21.4652 49.5793 21.4234 49.4201 21.4234C49.2608 21.4234 49.1218 21.4652 49.0007 21.5489C48.8795 21.6326 48.7853 21.7513 48.7181 21.9039C48.6508 22.0565 48.6171 22.234 48.6171 22.4341C48.6171 22.6343 48.6508 22.8129 48.7181 22.9666Z" fill="black"/>
<path d="M51.6685 23.7852C51.5103 23.6778 51.4049 23.5138 51.3533 23.2934L51.8445 23.0288C51.8771 23.1532 51.9253 23.2448 51.9903 23.3058C52.0543 23.3669 52.1384 23.3963 52.2427 23.3963C52.3795 23.3963 52.4759 23.3465 52.5331 23.2459C52.5903 23.1453 52.6195 22.9893 52.6195 22.7767V20.8728H53.2139V22.8344C53.2139 23.2278 53.1219 23.5116 52.9391 23.6857C52.7563 23.8598 52.523 23.9457 52.2382 23.9457C52.0173 23.9457 51.8266 23.8926 51.6685 23.7852Z" fill="black"/>
<path d="M55.5251 22.6196H54.3083V23.3714H55.7135V23.896H53.7139V20.8728H55.6686V21.3929H54.3083V22.1029H55.5251V22.6196Z" fill="black"/>
<path d="M58.0146 23.3341C58.12 23.2572 58.2041 23.1498 58.2669 23.0119L58.7626 23.3013C58.6886 23.5048 58.554 23.6721 58.3566 23.8033C58.1604 23.9344 57.9248 24 57.6523 24C57.3798 24 57.1454 23.9356 56.9267 23.8055C56.708 23.6755 56.5342 23.4924 56.4064 23.2538C56.2785 23.0153 56.2135 22.7428 56.2135 22.4341C56.2135 22.1255 56.2774 21.853 56.4041 21.6167C56.5308 21.3804 56.7047 21.1973 56.9245 21.0673C57.1443 20.9384 57.3865 20.8728 57.6523 20.8728C57.9181 20.8728 58.1604 20.9384 58.3566 21.0695C58.5529 21.2007 58.6886 21.368 58.7626 21.5715L58.2669 21.8609C58.2041 21.723 58.12 21.6156 58.0146 21.5387C57.9091 21.4618 57.7847 21.4234 57.64 21.4234C57.4875 21.4234 57.3506 21.4652 57.2307 21.5478C57.1107 21.6303 57.0153 21.7479 56.9458 21.9005C56.8763 22.0531 56.8415 22.2318 56.8415 22.4353C56.8415 22.6388 56.8763 22.8185 56.9458 22.9723C57.0153 23.1261 57.1107 23.2448 57.2307 23.3273C57.3506 23.4098 57.4875 23.4517 57.64 23.4517C57.7847 23.4517 57.9103 23.4132 58.0146 23.3363V23.3341Z" fill="black"/>
<path d="M59.2626 20.8728H61.6794V21.4053H60.7699V23.896H60.1721V21.4053H59.2626V20.8728Z" fill="black"/>
<path d="M8.80035 20.8705H11.2171V21.4031H10.3076V23.8937H9.70987V21.4031H8.80035V20.8705Z" fill="black"/>
<path d="M14.2079 23.8949L13.4992 23.8903L12.7702 22.8038H12.3115V23.8937H11.7171V20.8705H12.7534C12.9878 20.8705 13.1941 20.9101 13.3724 20.9904C13.5496 21.0707 13.6865 21.1837 13.7818 21.3307C13.8771 21.4777 13.9253 21.6461 13.9253 21.8361C13.9253 22.026 13.876 22.1979 13.7784 22.3437C13.6797 22.4895 13.5418 22.6015 13.3646 22.6783L14.2091 23.8926L14.2079 23.8949ZM12.3115 21.3793V22.2962H12.6838C12.8588 22.2962 13.0046 22.2589 13.1201 22.1832C13.2356 22.1074 13.2939 21.9921 13.2939 21.8383C13.2939 21.6846 13.2367 21.5659 13.1223 21.4912C13.008 21.4166 12.861 21.3793 12.6838 21.3793H12.3115Z" fill="black"/>
<path d="M16.4059 20.8705L17.6182 23.8937H16.9868L16.7244 23.2041H15.5569L15.3035 23.8937H14.7091L15.8844 20.8705H16.4048H16.4059ZM16.5326 22.6919L16.1311 21.6303L15.742 22.6919H16.5326Z" fill="black"/>
<path d="M18.5982 20.8705L20.0527 22.8694V20.8705H20.6056V23.8937H20.1223L18.6632 21.8903V23.8937H18.1182V20.8705H18.5971H18.5982Z" fill="black"/>
<path d="M23.2533 23.593C23.1479 23.7321 23.011 23.8349 22.8439 23.9005C22.6757 23.9661 22.4963 24 22.3056 24C22.0275 24 21.7752 23.9344 21.552 23.8033C21.3277 23.6721 21.1797 23.4878 21.1057 23.2482L21.589 22.9712C21.6541 23.1249 21.7505 23.2448 21.8761 23.3307C22.0017 23.4166 22.152 23.4585 22.3269 23.4585C22.4694 23.4585 22.5815 23.4291 22.6645 23.3714C22.7475 23.3137 22.789 23.2301 22.789 23.1193C22.789 23.0311 22.761 22.9587 22.7049 22.8999C22.6488 22.8423 22.5793 22.7971 22.4963 22.7631C22.4133 22.7304 22.2989 22.6919 22.1542 22.6478C21.9602 22.5902 21.8021 22.5325 21.6787 22.476C21.5554 22.4194 21.4511 22.3347 21.3636 22.2216C21.2761 22.1085 21.2324 21.9604 21.2324 21.775C21.2324 21.5794 21.284 21.4132 21.386 21.2776C21.4881 21.1408 21.6238 21.039 21.792 20.9723C21.9602 20.9045 22.1408 20.8705 22.3348 20.8705C22.5995 20.8705 22.826 20.9316 23.0144 21.0526C23.2028 21.1735 23.3239 21.3375 23.3789 21.5444L22.8955 21.8214C22.8462 21.6925 22.7722 21.5907 22.6746 21.5184C22.577 21.446 22.4537 21.4087 22.3056 21.4087C22.1722 21.4087 22.0634 21.4392 21.9804 21.5014C21.8974 21.5636 21.8559 21.645 21.8559 21.7467C21.8559 21.8236 21.8817 21.8881 21.9333 21.9389C21.9849 21.9898 22.0511 22.0317 22.1318 22.0633C22.2126 22.095 22.3213 22.1311 22.457 22.173C22.6533 22.2306 22.8159 22.2894 22.9449 22.3482C23.0727 22.407 23.1826 22.4952 23.2746 22.6128C23.3666 22.7304 23.4114 22.883 23.4114 23.0729C23.4114 23.2798 23.3587 23.4528 23.2533 23.5907V23.593Z" fill="black"/>
<path d="M23.9114 20.8705H24.5058V23.3567H25.8706V23.8937H23.9125V20.8705H23.9114Z" fill="black"/>
<path d="M28.0674 20.8705L29.2798 23.8937H28.6484L28.3859 23.2041H27.2185L26.965 23.8937H26.3706L27.5459 20.8705H28.0663H28.0674ZM28.1942 22.6919L27.7927 21.6303L27.4035 22.6919H28.1942Z" fill="black"/>
<path d="M29.7798 20.8705H32.1965V21.4031H31.287V23.8937H30.6893V21.4031H29.7798V20.8705Z" fill="black"/>
<path d="M33.2909 23.8937H32.6965V20.8705H33.2909V23.8937Z" fill="black"/>
<path d="M33.9793 21.6009C34.1049 21.3646 34.2765 21.1826 34.493 21.0582C34.7105 20.9327 34.9528 20.8705 35.2197 20.8705C35.4866 20.8705 35.73 20.9327 35.9464 21.0582C36.164 21.1837 36.3356 21.3646 36.4623 21.6009C36.589 21.8372 36.6529 22.1142 36.6529 22.4308C36.6529 22.7473 36.589 23.0288 36.4623 23.2651C36.3356 23.5025 36.1629 23.6834 35.9464 23.8078C35.7288 23.9333 35.4866 23.9955 35.2197 23.9955C34.9528 23.9955 34.7094 23.9333 34.493 23.8078C34.2754 23.6823 34.1049 23.5014 33.9793 23.2651C33.8537 23.0288 33.7909 22.7507 33.7909 22.4308C33.7909 22.1108 33.8537 21.8372 33.9793 21.6009ZM34.5176 22.9644C34.5849 23.1181 34.6791 23.238 34.8003 23.3216C34.9214 23.4053 35.0616 23.4471 35.2208 23.4471C35.3801 23.4471 35.5191 23.4053 35.6402 23.3216C35.7614 23.238 35.8556 23.1193 35.9229 22.9644C35.9901 22.8106 36.0227 22.6331 36.0227 22.4319C36.0227 22.2306 35.989 22.0543 35.9229 21.9016C35.8556 21.749 35.7614 21.6303 35.6402 21.5466C35.5191 21.463 35.3789 21.4211 35.2208 21.4211C35.0627 21.4211 34.9225 21.463 34.8003 21.5466C34.6791 21.6303 34.5849 21.749 34.5176 21.9016C34.4504 22.0543 34.4167 22.2318 34.4167 22.4319C34.4167 22.632 34.4504 22.8106 34.5176 22.9644Z" fill="black"/>
<path d="M37.6329 20.8705L39.0875 22.8694V20.8705H39.6404V23.8937H39.157L37.698 21.8903V23.8937H37.153V20.8705H37.6318H37.6329Z" fill="black"/>
<path d="M79.5858 15.436V18.748C79.5858 19.2707 79.5218 19.6653 79.3938 19.932C79.2764 20.2093 79.0684 20.4013 78.7698 20.508C78.4711 20.6147 78.0231 20.6733 77.4258 20.684C76.9991 20.684 76.4871 20.6467 75.8898 20.572L75.5218 18.732C76.0658 18.8067 76.5778 18.844 77.0578 18.844C77.3031 18.844 77.4631 18.8013 77.5378 18.716C77.6124 18.62 77.6498 18.4493 77.6498 18.204V15.596L73.6978 15.932L72.4978 16.06L72.1458 14.172C72.4231 14.1507 72.6631 14.124 72.8658 14.092C73.0791 14.0493 73.3458 13.9853 73.6658 13.9C74.6684 13.6013 75.9058 12.956 77.3778 11.964C75.8951 12.1453 74.8444 12.268 74.2258 12.332C74.2471 12.332 73.9324 12.3693 73.2818 12.444L72.8658 12.492L72.4978 10.796C72.7964 10.7427 73.0258 10.6893 73.1858 10.636C73.3564 10.5827 73.5324 10.5187 73.7138 10.444C74.3111 10.1667 75.1378 9.60133 76.1938 8.748C74.7644 8.844 73.4418 8.908 72.2258 8.94L72.0018 7.196C73.8044 7.17467 75.8844 7.068 78.2418 6.876C80.6098 6.684 82.5938 6.45467 84.1938 6.188L84.5618 7.948C83.2391 8.15067 81.3138 8.35333 78.7858 8.556C77.7511 9.516 76.8658 10.236 76.1298 10.716C77.3031 10.62 78.4604 10.5027 79.6018 10.364C80.4978 9.64933 81.1698 9.07867 81.6178 8.652L83.1698 9.788C82.1564 10.6947 81.0844 11.5427 79.9538 12.332C78.8338 13.1213 77.7884 13.7347 76.8178 14.172C78.4178 14.0333 80.0178 13.8733 81.6178 13.692C81.2871 13.3293 80.9884 13.0147 80.7218 12.748L82.1138 11.66C83.1058 12.6733 84.2044 13.8573 85.4098 15.212L84.0178 16.428L83.7458 16.108C83.4151 15.7133 83.1271 15.388 82.8818 15.132L79.5858 15.436ZM81.6658 15.916C82.7324 16.588 84.1351 17.5427 85.8738 18.78L84.8338 20.364C84.2364 19.9053 83.5218 19.3933 82.6898 18.828C81.8684 18.2627 81.1698 17.804 80.5938 17.452L81.6658 15.916ZM76.1778 17.484C74.5991 18.796 73.2178 19.772 72.0338 20.412L71.0098 18.78C72.4818 18.012 73.7938 17.1053 74.9458 16.06L76.1778 17.484ZM99.2498 6.268H101.154V18.604C101.154 19.372 100.983 19.9213 100.642 20.252C100.311 20.5827 99.7138 20.7533 98.8498 20.764C98.1991 20.7747 97.5004 20.748 96.7538 20.684L96.4018 18.748C97.1164 18.8333 97.7831 18.876 98.4018 18.876C98.7324 18.876 98.9564 18.812 99.0738 18.684C99.1911 18.5453 99.2498 18.2893 99.2498 17.916V6.268ZM87.5058 8.556V6.684H95.4098V8.556H91.8258C91.6871 9.1 91.5271 9.628 91.3458 10.14H95.0098V11.916C94.6898 13.2387 94.2684 14.412 93.7458 15.436C93.2231 16.46 92.5458 17.42 91.7138 18.316C90.8924 19.212 89.8471 20.124 88.5778 21.052L87.2978 19.436C88.1618 18.8493 88.8978 18.2893 89.5058 17.756C90.1244 17.212 90.6524 16.6627 91.0898 16.108C90.5778 15.6493 89.9698 15.132 89.2658 14.556C88.8818 15.164 88.4551 15.7507 87.9858 16.316L86.7538 14.812C87.3724 14.012 87.9751 13.0307 88.5618 11.868C89.1484 10.6947 89.5698 9.59067 89.8258 8.556H87.5058ZM96.0338 7.724H97.9538V17.036H96.0338V7.724ZM90.6418 11.964C90.5884 12.1027 90.4444 12.4173 90.2098 12.908C91.0738 13.612 91.7138 14.1453 92.1298 14.508C92.5031 13.772 92.8231 12.924 93.0898 11.964H90.6418Z" fill="black"/>
</svg>
