<svg width="103" height="28" viewBox="0 0 103 28" fill="none" xmlns="http://www.w3.org/2000/svg">
<rect width="102.963" height="28" fill="white"/>
<path d="M37.8673 12.1721C36.931 12.1721 36.2336 12.6257 36.2336 13.7195C36.2336 14.5442 36.692 15.1171 37.8148 15.1171C38.7666 15.1171 39.4135 14.5615 39.4135 13.6849C39.4135 12.693 38.8366 12.1721 37.8673 12.1721ZM35.9966 19.896C35.7752 20.1651 35.5557 20.4496 35.5557 20.7861C35.5557 21.4589 36.422 21.6626 37.6128 21.6626C38.5996 21.6626 39.9419 21.5954 39.9419 20.6861C39.9419 20.1478 39.295 20.1132 38.4791 20.0633L35.9966 19.896ZM41.0297 12.222C41.3366 12.6103 41.659 13.1486 41.659 13.9233C41.659 15.7918 40.1808 16.8837 38.0362 16.8837C37.4923 16.8837 36.9989 16.8164 36.692 16.7338L36.1306 17.6238L37.7973 17.7257C40.7402 17.9122 42.4729 17.9948 42.4729 20.2324C42.4729 22.1682 40.7558 23.2601 37.7973 23.2601C34.8389 23.2601 33.5452 22.4854 33.5452 21.1571C33.5452 20.3997 33.8851 19.996 34.4795 19.4404C33.9181 19.2059 33.7316 18.7849 33.7316 18.3312C33.7316 17.9602 33.9181 17.6257 34.225 17.3047C34.532 16.9856 34.87 16.6665 35.2798 16.2955C34.4465 15.8918 33.8191 15.0171 33.8191 13.7714C33.8191 11.8376 35.1108 10.5073 37.7138 10.5073C38.4442 10.5073 38.8871 10.5727 39.2775 10.6746H42.5953V12.1048L41.0297 12.222ZM45.5868 9.1636C44.6175 9.1636 44.0561 8.60804 44.0561 7.64687C44.0561 6.6857 44.6175 6.16667 45.5868 6.16667C46.5561 6.16667 47.135 6.68763 47.135 7.64687C47.133 8.60804 46.5716 9.1636 45.5868 9.1636ZM43.3918 19.277V17.9487L44.2601 17.8314C44.497 17.7968 44.532 17.7468 44.532 17.495V12.5469C44.532 12.3624 44.4815 12.2432 44.3106 12.1951L43.3937 11.8741L43.5802 10.5131H47.1019V17.4969C47.1019 17.7661 47.1194 17.8007 47.3739 17.8333L48.2422 17.9506V19.2789H43.3918V19.277ZM54.9633 18.6253C54.2329 18.9771 53.1606 19.2982 52.1913 19.2982C50.1672 19.2982 49.4038 18.4927 49.4038 16.5877V12.1797C49.4038 12.0779 49.4038 12.0125 49.2678 12.0125H48.0751V10.515C49.5728 10.3458 50.1672 9.60573 50.3537 7.77182H51.9699V10.1613C51.9699 10.2786 51.9699 10.3285 52.1058 10.3285H54.5049V12.0106H51.9718V16.0321C51.9718 17.024 52.2088 17.4104 53.1276 17.4104C53.6055 17.4104 54.0969 17.2932 54.5049 17.1413L54.9633 18.6253Z" fill="#2F2707"/>
<path d="M27.8301 13.1109L19.0053 4.37774C18.4964 3.87409 17.6727 3.87409 17.1657 4.37774L15.3339 6.19243L17.6572 8.49154C18.2147 8.30315 18.8305 8.44541 19.2481 8.85871C19.6657 9.27393 19.8095 9.88908 19.6152 10.4427L21.855 12.6592C22.3969 12.4746 23.0224 12.5938 23.4556 13.0225C24.0597 13.6203 24.0597 14.5911 23.4556 15.189C22.8515 15.7868 21.8705 15.7887 21.2644 15.1909C20.8215 14.7526 20.6894 14.0952 20.9264 13.5223L18.8382 11.4558V16.896C18.9898 16.971 19.1277 17.0671 19.2481 17.1863C19.8522 17.7841 19.8522 18.7549 19.2481 19.3547C18.642 19.9544 17.663 19.9544 17.0589 19.3547C16.4548 18.7568 16.4528 17.786 17.0589 17.1863C17.2046 17.0421 17.3775 16.9287 17.5659 16.8518V11.3597C17.3755 11.2828 17.2026 11.1694 17.0589 11.0252C16.6005 10.5715 16.4897 9.90638 16.7248 9.3489L14.4326 7.08247L8.3817 13.0686C7.87277 13.5723 7.87277 14.3874 8.3817 14.891L17.2065 23.6223C17.7155 24.1259 18.5391 24.1259 19.048 23.6223L27.8301 14.9314C28.3391 14.4296 28.3391 13.6126 27.8301 13.1109Z" fill="#DE4C36"/>
<path d="M72.1153 15.436V18.748C72.1153 19.2707 72.0513 19.6653 71.9233 19.932C71.8059 20.2093 71.5979 20.4013 71.2993 20.508C71.0006 20.6147 70.5526 20.6733 69.9553 20.684C69.5286 20.684 69.0166 20.6467 68.4193 20.572L68.0513 18.732C68.5953 18.8067 69.1073 18.844 69.5873 18.844C69.8326 18.844 69.9926 18.8013 70.0673 18.716C70.1419 18.62 70.1793 18.4493 70.1793 18.204V15.596L66.2273 15.932L65.0273 16.06L64.6753 14.172C64.9526 14.1507 65.1926 14.124 65.3953 14.092C65.6086 14.0493 65.8753 13.9853 66.1953 13.9C67.1979 13.6013 68.4353 12.956 69.9073 11.964C68.4246 12.1453 67.3739 12.268 66.7553 12.332C66.7766 12.332 66.4619 12.3693 65.8113 12.444L65.3953 12.492L65.0273 10.796C65.3259 10.7427 65.5553 10.6893 65.7153 10.636C65.8859 10.5827 66.0619 10.5187 66.2433 10.444C66.8406 10.1667 67.6673 9.60133 68.7233 8.748C67.2939 8.844 65.9713 8.908 64.7553 8.94L64.5313 7.196C66.3339 7.17467 68.4139 7.068 70.7713 6.876C73.1393 6.684 75.1233 6.45467 76.7233 6.188L77.0913 7.948C75.7686 8.15067 73.8433 8.35333 71.3153 8.556C70.2806 9.516 69.3953 10.236 68.6593 10.716C69.8326 10.62 70.9899 10.5027 72.1313 10.364C73.0273 9.64933 73.6993 9.07867 74.1473 8.652L75.6993 9.788C74.6859 10.6947 73.6139 11.5427 72.4833 12.332C71.3633 13.1213 70.3179 13.7347 69.3473 14.172C70.9473 14.0333 72.5473 13.8733 74.1473 13.692C73.8166 13.3293 73.5179 13.0147 73.2513 12.748L74.6433 11.66C75.6353 12.6733 76.7339 13.8573 77.9393 15.212L76.5473 16.428L76.2753 16.108C75.9446 15.7133 75.6566 15.388 75.4113 15.132L72.1153 15.436ZM74.1953 15.916C75.2619 16.588 76.6646 17.5427 78.4033 18.78L77.3633 20.364C76.7659 19.9053 76.0513 19.3933 75.2193 18.828C74.3979 18.2627 73.6993 17.804 73.1233 17.452L74.1953 15.916ZM68.7073 17.484C67.1286 18.796 65.7473 19.772 64.5633 20.412L63.5393 18.78C65.0113 18.012 66.3233 17.1053 67.4753 16.06L68.7073 17.484ZM91.7793 6.268H93.6833V18.604C93.6833 19.372 93.5126 19.9213 93.1713 20.252C92.8406 20.5827 92.2433 20.7533 91.3793 20.764C90.7286 20.7747 90.0299 20.748 89.2833 20.684L88.9313 18.748C89.6459 18.8333 90.3126 18.876 90.9313 18.876C91.2619 18.876 91.4859 18.812 91.6033 18.684C91.7206 18.5453 91.7793 18.2893 91.7793 17.916V6.268ZM80.0353 8.556V6.684H87.9393V8.556H84.3553C84.2166 9.1 84.0566 9.628 83.8753 10.14H87.5393V11.916C87.2193 13.2387 86.7979 14.412 86.2753 15.436C85.7526 16.46 85.0753 17.42 84.2433 18.316C83.4219 19.212 82.3766 20.124 81.1073 21.052L79.8273 19.436C80.6913 18.8493 81.4273 18.2893 82.0353 17.756C82.6539 17.212 83.1819 16.6627 83.6193 16.108C83.1073 15.6493 82.4993 15.132 81.7953 14.556C81.4113 15.164 80.9846 15.7507 80.5153 16.316L79.2833 14.812C79.9019 14.012 80.5046 13.0307 81.0913 11.868C81.6779 10.6947 82.0993 9.59067 82.3553 8.556H80.0353ZM88.5633 7.724H90.4833V17.036H88.5633V7.724ZM83.1713 11.964C83.1179 12.1027 82.9739 12.4173 82.7393 12.908C83.6033 13.612 84.2433 14.1453 84.6593 14.508C85.0326 13.772 85.3526 12.924 85.6193 11.964H83.1713Z" fill="black"/>
</svg>
