<svg width="89" height="28" viewBox="0 0 89 28" fill="none" xmlns="http://www.w3.org/2000/svg">
<rect width="88.782" height="28" fill="white"/>
<path d="M21.736 20.4551H17.4376V22.9607H21.736V20.4551Z" fill="#C1C1C1"/>
<path fill-rule="evenodd" clip-rule="evenodd" d="M8.62533 4.79608H30.5483C30.8919 4.79608 31.1736 5.09061 31.1736 5.45129V19.7977C31.1736 20.1584 30.8919 20.4529 30.5483 20.4529H8.62533C8.28172 20.455 8 20.1605 8 19.7977V5.45129C8 5.09061 8.28172 4.79608 8.62533 4.79608Z" fill="#BDBDBD"/>
<path fill-rule="evenodd" clip-rule="evenodd" d="M8.62533 4.79608H30.5483C30.8919 4.79608 31.1736 5.09061 31.1736 5.45129V17.9195C31.1736 18.2802 30.8919 18.5748 30.5483 18.5748H8.62533C8.28172 18.5748 8 18.2802 8 17.9195V5.45129C8 5.09061 8.28172 4.79608 8.62533 4.79608Z" fill="#424242"/>
<path fill-rule="evenodd" clip-rule="evenodd" d="M11.863 17.7937H11.8651H30.3925V5.57941H21.068H21.6335L11.863 17.7937Z" fill="#6BC4EA"/>
<path fill-rule="evenodd" clip-rule="evenodd" d="M8.78326 5.57941V17.7937H12.3795L23.0272 5.57941H8.78326Z" fill="#66BEE3"/>
<path d="M22.4061 22.935H16.7696V23.2039H22.4061V22.935Z" fill="#D6D6D6"/>
<path d="M29.6029 19.5395H29.0586V19.6825H29.6029V19.5395Z" fill="#424242"/>
<path d="M30.6379 19.5395H30.0937V19.6825H30.6379V19.5395Z" fill="#1DE9B6"/>
<path fill-rule="evenodd" clip-rule="evenodd" d="M33.8756 4H39.7063C40.003 4 40.2719 4.14726 40.4661 4.3863C40.6603 4.62533 40.782 4.95401 40.782 5.31896V22.681C40.782 23.0439 40.6603 23.3747 40.4661 23.6137C40.2719 23.8527 40.003 24 39.7063 24C35.1049 24 38.4749 24 33.8756 24C33.5789 24 33.31 23.8527 33.1158 23.6137C32.9216 23.3747 32.7999 23.046 32.7999 22.681V5.31896C32.7999 4.95614 32.9216 4.62533 33.1158 4.3863C33.31 4.14726 33.5789 4 33.8756 4Z" fill="#434452"/>
<path fill-rule="evenodd" clip-rule="evenodd" d="M37.8389 24V17.1918H37.0258V24H37.8389Z" fill="#2F303D"/>
<path fill-rule="evenodd" clip-rule="evenodd" d="M36.5541 24V17.1918H35.7431V24H36.5541Z" fill="#2F303D"/>
<path fill-rule="evenodd" clip-rule="evenodd" d="M36.791 14.8569C37.0236 14.8569 37.2114 15.0468 37.2114 15.2795C37.2114 15.5142 37.0236 15.702 36.791 15.702C36.5583 15.702 36.3705 15.5121 36.3705 15.2795C36.3705 15.0447 36.5583 14.8569 36.791 14.8569Z" fill="#FBC02D"/>
<path fill-rule="evenodd" clip-rule="evenodd" d="M32.8789 5.66684H40.703V8.18525H32.8789V5.66684Z" fill="#2F303D"/>
<path fill-rule="evenodd" clip-rule="evenodd" d="M34.4113 6.39032H39.1685V7.46171H34.4113V6.39032Z" fill="#232430"/>
<path fill-rule="evenodd" clip-rule="evenodd" d="M36.791 16.1332C36.9126 16.1332 37.0108 16.2314 37.0108 16.3551C37.0108 16.4768 36.9126 16.5771 36.791 16.5771C36.6693 16.5771 36.5711 16.4789 36.5711 16.3551C36.5711 16.2314 36.6693 16.1332 36.791 16.1332Z" fill="#FBC02D"/>
<path d="M64.03 9.5H57.614L57.358 10.524H62.318V20.828H60.366V20.076H53.166V20.86H51.214V10.524H55.246L55.534 9.5H49.518V7.772H53.374C53.1926 7.39867 52.958 6.94533 52.67 6.412L54.478 5.948C54.5206 6.03333 54.5686 6.13467 54.622 6.252C54.686 6.36933 54.7606 6.50267 54.846 6.652C55.166 7.27067 55.358 7.644 55.422 7.772H58.014C58.5153 7.04667 58.8993 6.428 59.166 5.916L61.022 6.428C60.734 6.89733 60.4513 7.34533 60.174 7.772H64.03V9.5ZM53.166 13.26H60.366V12.156H53.166V13.26ZM60.366 14.764H53.166V15.852H60.366V14.764ZM53.166 17.324V18.444H60.366V17.324H53.166ZM71.166 9.932L71.566 8.492H65.87V6.62H79.646V8.492H73.79L73.374 9.932H78.302V16.796H76.318V11.82H69.118V16.86H67.134V9.932H71.166ZM78.67 20.956C77.838 20.476 76.83 19.9213 75.646 19.292C74.4726 18.6627 73.4753 18.1507 72.654 17.756C72.1526 18.3747 71.406 18.94 70.414 19.452C69.4326 19.964 68.0993 20.476 66.414 20.988L65.47 18.988C67.2726 18.5293 68.606 18.0813 69.47 17.644C70.3446 17.196 70.926 16.716 71.214 16.204C71.5126 15.6813 71.6833 14.988 71.726 14.124C71.7366 13.868 71.742 13.34 71.742 12.54H73.726C73.726 13.3827 73.7206 13.9373 73.71 14.204C73.6886 14.9507 73.6193 15.5587 73.502 16.028C74.334 16.3907 75.3686 16.8653 76.606 17.452C77.8433 18.0387 78.8673 18.5347 79.678 18.94L78.67 20.956Z" fill="black"/>
</svg>
