<svg width="89" height="35" viewBox="0 0 89 35" fill="none" xmlns="http://www.w3.org/2000/svg">
<rect width="89" height="35" fill="white"/>
<path d="M38.7373 24H10.5038C9.22496 24 8.14285 22.9322 8.14285 21.6699V6.33007C8.14285 5.06795 9.22496 4 10.5038 4H38.639C39.9179 4 41 5.06795 41 6.33007V21.6699C41 22.9321 40.0162 24 38.7373 24ZM10.5038 5.55334C10.1103 5.55334 9.71679 5.94171 9.71679 6.33007V21.6699C9.71679 22.1553 10.1103 22.4467 10.5038 22.4467H38.639C39.1309 22.4467 39.4261 22.0583 39.4261 21.6699V6.33007C39.4261 5.84468 39.0325 5.55334 38.639 5.55334H10.5038Z" fill="black"/>
<path d="M27.9162 14.1942L32.6381 19.3399L37.3602 14.0972H34.2122V8.66015H31.0642V14.1942H27.9162Z" fill="#B53589"/>
<path d="M12.8648 8.66015V19.3399H16.0128V13.2233L19.1608 17.1069L22.3088 13.2233V19.3399H25.4568V8.66015H22.3088L19.1608 12.5438L16.0128 8.66015H12.8648Z" fill="black"/>
<path d="M11.919 26.34H12.469V30H11.779V27.64L10.849 29.025H10.469L9.53396 27.63V30H8.84896V26.34H9.42396L10.674 28.235L11.919 26.34ZM15.0536 26.34L16.5336 30H15.7636L15.4436 29.165H14.0186L13.7086 30H12.9836L14.4186 26.34H15.0536ZM15.2086 28.545L14.7186 27.26L14.2436 28.545H15.2086ZM20.0919 30L19.2269 29.995L18.3369 28.68H18.3069H17.7769V30H17.0519V26.34H18.3169C18.6036 26.34 18.8552 26.3883 19.0719 26.485C19.2886 26.5817 19.4552 26.72 19.5719 26.9C19.6886 27.0767 19.7469 27.28 19.7469 27.51C19.7469 27.7433 19.6869 27.9483 19.5669 28.125C19.4469 28.3017 19.2786 28.4367 19.0619 28.53L20.0919 30ZM17.7769 26.955V28.065H18.2319C18.4452 28.065 18.6219 28.02 18.7619 27.93C18.9052 27.8367 18.9769 27.6967 18.9769 27.51C18.9769 27.32 18.9069 27.18 18.7669 27.09C18.6269 27 18.4486 26.955 18.2319 26.955H17.7769ZM22.3197 27.835L23.8747 30H22.9397L21.7997 28.39L21.2997 28.925V30H20.5747V26.34H21.2997V28.045L22.8197 26.34H23.7247L22.3197 27.835ZM25.508 26.34C25.8647 26.34 26.1864 26.4117 26.473 26.555C26.763 26.6983 26.9914 26.9083 27.158 27.185C27.3247 27.4583 27.408 27.785 27.408 28.165C27.408 28.545 27.3247 28.8733 27.158 29.15C26.9914 29.4267 26.7647 29.6383 26.478 29.785C26.1914 29.9283 25.868 30 25.508 30H24.288V26.34H25.508ZM25.423 29.38C25.8164 29.38 26.118 29.275 26.328 29.065C26.538 28.855 26.643 28.555 26.643 28.165C26.643 27.7817 26.5364 27.485 26.323 27.275C26.113 27.0617 25.813 26.955 25.423 26.955H25.013V29.38H25.423ZM27.9288 28.165C27.9288 27.7817 28.0055 27.4467 28.1588 27.16C28.3122 26.8733 28.5205 26.655 28.7838 26.505C29.0505 26.3517 29.3472 26.275 29.6738 26.275C30.0005 26.275 30.2955 26.3517 30.5588 26.505C30.8255 26.655 31.0355 26.8733 31.1888 27.16C31.3455 27.4467 31.4238 27.7817 31.4238 28.165C31.4238 28.5517 31.3455 28.8883 31.1888 29.175C31.0355 29.4617 30.8255 29.6817 30.5588 29.835C30.2955 29.985 30.0005 30.06 29.6738 30.06C29.3472 30.06 29.0505 29.985 28.7838 29.835C28.5205 29.6817 28.3122 29.4617 28.1588 29.175C28.0055 28.8883 27.9288 28.5517 27.9288 28.165ZM28.6938 28.165C28.6938 28.4083 28.7338 28.6233 28.8138 28.81C28.8972 28.9967 29.0122 29.1417 29.1588 29.245C29.3088 29.345 29.4805 29.395 29.6738 29.395C29.8672 29.395 30.0372 29.345 30.1838 29.245C30.3338 29.1417 30.4488 28.9967 30.5288 28.81C30.6122 28.6233 30.6538 28.4083 30.6538 28.165C30.6538 27.9217 30.6122 27.7083 30.5288 27.525C30.4488 27.3383 30.3338 27.195 30.1838 27.095C30.0372 26.9917 29.8672 26.94 29.6738 26.94C29.4805 26.94 29.3088 26.9917 29.1588 27.095C29.0122 27.195 28.8972 27.3383 28.8138 27.525C28.7338 27.7083 28.6938 27.9217 28.6938 28.165ZM34.4429 26.34L35.2029 28.8L35.9029 26.34H36.6029L35.4629 30H34.9029L34.1329 27.61L33.3879 30H32.8329L31.6429 26.34H32.3929L33.1429 28.8L33.8629 26.34H34.4429ZM37.7072 26.34L39.4822 28.76V26.34H40.1572V30H39.5672L37.7872 27.575V30H37.1222V26.34H37.7072Z" fill="black"/>
<path d="M58.152 18.936V22.248C58.152 22.7707 58.088 23.1653 57.96 23.432C57.8427 23.7093 57.6347 23.9013 57.336 24.008C57.0373 24.1147 56.5893 24.1733 55.992 24.184C55.5653 24.184 55.0533 24.1467 54.456 24.072L54.088 22.232C54.632 22.3067 55.144 22.344 55.624 22.344C55.8693 22.344 56.0293 22.3013 56.104 22.216C56.1787 22.12 56.216 21.9493 56.216 21.704V19.096L52.264 19.432L51.064 19.56L50.712 17.672C50.9893 17.6507 51.2293 17.624 51.432 17.592C51.6453 17.5493 51.912 17.4853 52.232 17.4C53.2347 17.1013 54.472 16.456 55.944 15.464C54.4613 15.6453 53.4107 15.768 52.792 15.832C52.8133 15.832 52.4987 15.8693 51.848 15.944L51.432 15.992L51.064 14.296C51.3627 14.2427 51.592 14.1893 51.752 14.136C51.9227 14.0827 52.0987 14.0187 52.28 13.944C52.8773 13.6667 53.704 13.1013 54.76 12.248C53.3307 12.344 52.008 12.408 50.792 12.44L50.568 10.696C52.3707 10.6747 54.4507 10.568 56.808 10.376C59.176 10.184 61.16 9.95467 62.76 9.688L63.128 11.448C61.8053 11.6507 59.88 11.8533 57.352 12.056C56.3173 13.016 55.432 13.736 54.696 14.216C55.8693 14.12 57.0267 14.0027 58.168 13.864C59.064 13.1493 59.736 12.5787 60.184 12.152L61.736 13.288C60.7227 14.1947 59.6507 15.0427 58.52 15.832C57.4 16.6213 56.3547 17.2347 55.384 17.672C56.984 17.5333 58.584 17.3733 60.184 17.192C59.8533 16.8293 59.5547 16.5147 59.288 16.248L60.68 15.16C61.672 16.1733 62.7707 17.3573 63.976 18.712L62.584 19.928L62.312 19.608C61.9813 19.2133 61.6933 18.888 61.448 18.632L58.152 18.936ZM60.232 19.416C61.2987 20.088 62.7013 21.0427 64.44 22.28L63.4 23.864C62.8027 23.4053 62.088 22.8933 61.256 22.328C60.4347 21.7627 59.736 21.304 59.16 20.952L60.232 19.416ZM54.744 20.984C53.1653 22.296 51.784 23.272 50.6 23.912L49.576 22.28C51.048 21.512 52.36 20.6053 53.512 19.56L54.744 20.984ZM77.816 9.768H79.72V22.104C79.72 22.872 79.5493 23.4213 79.208 23.752C78.8773 24.0827 78.28 24.2533 77.416 24.264C76.7653 24.2747 76.0667 24.248 75.32 24.184L74.968 22.248C75.6827 22.3333 76.3493 22.376 76.968 22.376C77.2987 22.376 77.5227 22.312 77.64 22.184C77.7573 22.0453 77.816 21.7893 77.816 21.416V9.768ZM66.072 12.056V10.184H73.976V12.056H70.392C70.2533 12.6 70.0933 13.128 69.912 13.64H73.576V15.416C73.256 16.7387 72.8347 17.912 72.312 18.936C71.7893 19.96 71.112 20.92 70.28 21.816C69.4587 22.712 68.4133 23.624 67.144 24.552L65.864 22.936C66.728 22.3493 67.464 21.7893 68.072 21.256C68.6907 20.712 69.2187 20.1627 69.656 19.608C69.144 19.1493 68.536 18.632 67.832 18.056C67.448 18.664 67.0213 19.2507 66.552 19.816L65.32 18.312C65.9387 17.512 66.5413 16.5307 67.128 15.368C67.7147 14.1947 68.136 13.0907 68.392 12.056H66.072ZM74.6 11.224H76.52V20.536H74.6V11.224ZM69.208 15.464C69.1547 15.6027 69.0107 15.9173 68.776 16.408C69.64 17.112 70.28 17.6453 70.696 18.008C71.0693 17.272 71.3893 16.424 71.656 15.464H69.208Z" fill="black"/>
</svg>
