<svg width="178" height="28" viewBox="0 0 178 28" fill="none" xmlns="http://www.w3.org/2000/svg">
<rect width="177.857" height="28" fill="white"/>
<path d="M38.5945 24H10.361C9.0821 24 8 22.9322 8 21.6699V6.33007C8 5.06795 9.0821 4 10.361 4H38.4962C39.775 4 40.8571 5.06795 40.8571 6.33007V21.6699C40.8571 22.9321 39.8734 24 38.5945 24ZM10.361 5.55334C9.96745 5.55334 9.57393 5.94171 9.57393 6.33007V21.6699C9.57393 22.1553 9.96745 22.4467 10.361 22.4467H38.4962C38.988 22.4467 39.2832 22.0583 39.2832 21.6699V6.33007C39.2832 5.84468 38.8897 5.55334 38.4962 5.55334H10.361Z" fill="black"/>
<path d="M27.7733 14.1942L32.4952 19.3399L37.2173 14.0972H34.0693V8.66015H30.9213V14.1942H27.7733Z" fill="#B53589"/>
<path d="M12.7219 8.66015V19.3399H15.8699V13.2233L19.0179 17.1069L22.1659 13.2233V19.3399H25.3139V8.66015H22.1659L19.0179 12.5438L15.8699 8.66015H12.7219Z" fill="black"/>
<path d="M59.9131 7.788H61.6731V19.5H59.4651V11.948L56.4891 16.38H55.2731L52.2811 11.916V19.5H50.0891V7.788H51.9291L55.9291 13.852L59.9131 7.788ZM67.448 11.004C68.568 11.004 69.4427 11.324 70.072 11.964C70.7014 12.5933 71.016 13.4947 71.016 14.668V19.5H69.144C69.1334 19.4147 69.1174 19.276 69.096 19.084C69.0854 18.8813 69.064 18.7053 69.032 18.556C68.7867 18.94 68.4667 19.228 68.072 19.42C67.688 19.6013 67.2187 19.692 66.664 19.692C66.088 19.692 65.56 19.5907 65.08 19.388C64.6107 19.1853 64.2374 18.892 63.96 18.508C63.6827 18.1133 63.544 17.6493 63.544 17.116C63.544 16.5613 63.6987 16.0813 64.008 15.676C64.328 15.26 64.7547 14.94 65.288 14.716C65.8214 14.492 66.408 14.38 67.048 14.38C67.624 14.38 68.216 14.476 68.824 14.668C68.792 13.4413 68.2694 12.828 67.256 12.828C66.4454 12.828 65.8534 13.1907 65.48 13.916L63.896 13.004C64.1947 12.3853 64.6534 11.9 65.272 11.548C65.8907 11.1853 66.616 11.004 67.448 11.004ZM68.824 16.14C68.2907 16.012 67.8267 15.948 67.432 15.948C66.9094 15.948 66.504 16.044 66.216 16.236C65.928 16.4173 65.784 16.6787 65.784 17.02C65.784 17.3293 65.896 17.5693 66.12 17.74C66.3547 17.9107 66.6534 17.996 67.016 17.996C67.496 17.996 67.9174 17.8627 68.28 17.596C68.6427 17.3187 68.824 16.94 68.824 16.46V16.14ZM77.3753 11.004C77.6953 11.004 77.9939 11.052 78.2713 11.148C78.5486 11.244 78.7619 11.3667 78.9113 11.516L78.0473 13.228C77.7699 13.036 77.4553 12.94 77.1033 12.94C76.5273 12.94 76.0633 13.18 75.7113 13.66C75.3699 14.14 75.1993 14.8013 75.1993 15.644V19.5H72.9753V11.212H74.9273C74.9806 11.852 75.0286 12.2893 75.0713 12.524C75.3166 12.0227 75.6366 11.644 76.0313 11.388C76.4259 11.132 76.8739 11.004 77.3753 11.004ZM84.8263 14.524L88.1703 19.5H85.4983L83.3223 16.204L82.0743 17.58V19.5H79.8503V7.324H82.0743V14.876L85.2263 11.212H87.8023L84.8263 14.524ZM94.4853 7.324H96.7093V19.5H94.7573C94.7039 18.8813 94.6613 18.4653 94.6293 18.252C94.3413 18.732 93.9626 19.0947 93.4933 19.34C93.0346 19.5747 92.5333 19.692 91.9893 19.692C91.3066 19.692 90.6826 19.5213 90.1173 19.18C89.5519 18.8387 89.0986 18.3427 88.7573 17.692C88.4159 17.0307 88.2453 16.252 88.2453 15.356C88.2453 14.4493 88.4159 13.6707 88.7573 13.02C89.0986 12.3587 89.5519 11.8573 90.1173 11.516C90.6826 11.1747 91.3066 11.004 91.9893 11.004C92.4906 11.004 92.9546 11.1053 93.3813 11.308C93.8186 11.5107 94.1866 11.82 94.4853 12.236V7.324ZM92.5013 17.788C93.0559 17.788 93.5253 17.5853 93.9093 17.18C94.2933 16.7747 94.4853 16.1667 94.4853 15.356C94.4853 14.556 94.2933 13.964 93.9093 13.58C93.5253 13.1853 93.0559 12.988 92.5013 12.988C91.9146 12.988 91.4399 13.196 91.0773 13.612C90.7253 14.028 90.5493 14.6093 90.5493 15.356C90.5493 16.1027 90.7253 16.6947 91.0773 17.132C91.4399 17.5693 91.9146 17.788 92.5013 17.788ZM98.3078 15.356C98.3078 14.492 98.4998 13.7293 98.8838 13.068C99.2784 12.4067 99.8011 11.9 100.452 11.548C101.102 11.1853 101.806 11.004 102.564 11.004C103.31 11.004 104.004 11.1853 104.644 11.548C105.294 11.9 105.812 12.4067 106.196 13.068C106.59 13.7293 106.788 14.492 106.788 15.356C106.788 16.22 106.59 16.9827 106.196 17.644C105.812 18.3053 105.294 18.812 104.644 19.164C104.004 19.516 103.31 19.692 102.564 19.692C101.806 19.692 101.102 19.516 100.452 19.164C99.8011 18.812 99.2784 18.3053 98.8838 17.644C98.4998 16.9827 98.3078 16.22 98.3078 15.356ZM100.612 15.356C100.612 16.092 100.793 16.6787 101.156 17.116C101.529 17.5427 101.993 17.756 102.548 17.756C103.102 17.756 103.561 17.5427 103.924 17.116C104.286 16.6787 104.468 16.092 104.468 15.356C104.468 14.62 104.286 14.0333 103.924 13.596C103.561 13.1587 103.102 12.94 102.548 12.94C101.993 12.94 101.529 13.1587 101.156 13.596C100.793 14.0333 100.612 14.62 100.612 15.356ZM114.457 11.212L116.185 16.38L117.817 11.212H119.977L116.953 19.484H115.369L113.481 14.444L111.673 19.484H110.073L106.937 11.212H109.225L110.969 16.444L112.601 11.212H114.457ZM125.821 11.004C126.738 11.004 127.464 11.308 127.997 11.916C128.53 12.5133 128.797 13.388 128.797 14.54V19.5H126.573V15.26C126.573 13.7453 126.072 12.988 125.069 12.988C124.536 12.988 124.104 13.196 123.773 13.612C123.453 14.0173 123.293 14.5933 123.293 15.34V19.5H121.069V11.212H123.021C123.074 11.8627 123.122 12.3053 123.165 12.54C123.698 11.516 124.584 11.004 125.821 11.004Z" fill="black"/>
<path d="M147.009 15.436V18.748C147.009 19.2707 146.945 19.6653 146.817 19.932C146.7 20.2093 146.492 20.4013 146.193 20.508C145.894 20.6147 145.446 20.6733 144.849 20.684C144.422 20.684 143.91 20.6467 143.313 20.572L142.945 18.732C143.489 18.8067 144.001 18.844 144.481 18.844C144.726 18.844 144.886 18.8013 144.961 18.716C145.036 18.62 145.073 18.4493 145.073 18.204V15.596L141.121 15.932L139.921 16.06L139.569 14.172C139.846 14.1507 140.086 14.124 140.289 14.092C140.502 14.0493 140.769 13.9853 141.089 13.9C142.092 13.6013 143.329 12.956 144.801 11.964C143.318 12.1453 142.268 12.268 141.649 12.332C141.67 12.332 141.356 12.3693 140.705 12.444L140.289 12.492L139.921 10.796C140.22 10.7427 140.449 10.6893 140.609 10.636C140.78 10.5827 140.956 10.5187 141.137 10.444C141.734 10.1667 142.561 9.60133 143.617 8.748C142.188 8.844 140.865 8.908 139.649 8.94L139.425 7.196C141.228 7.17467 143.308 7.068 145.665 6.876C148.033 6.684 150.017 6.45467 151.617 6.188L151.985 7.948C150.662 8.15067 148.737 8.35333 146.209 8.556C145.174 9.516 144.289 10.236 143.553 10.716C144.726 10.62 145.884 10.5027 147.025 10.364C147.921 9.64933 148.593 9.07867 149.041 8.652L150.593 9.788C149.58 10.6947 148.508 11.5427 147.377 12.332C146.257 13.1213 145.212 13.7347 144.241 14.172C145.841 14.0333 147.441 13.8733 149.041 13.692C148.71 13.3293 148.412 13.0147 148.145 12.748L149.537 11.66C150.529 12.6733 151.628 13.8573 152.833 15.212L151.441 16.428L151.169 16.108C150.838 15.7133 150.55 15.388 150.305 15.132L147.009 15.436ZM149.089 15.916C150.156 16.588 151.558 17.5427 153.297 18.78L152.257 20.364C151.66 19.9053 150.945 19.3933 150.113 18.828C149.292 18.2627 148.593 17.804 148.017 17.452L149.089 15.916ZM143.601 17.484C142.022 18.796 140.641 19.772 139.457 20.412L138.433 18.78C139.905 18.012 141.217 17.1053 142.369 16.06L143.601 17.484ZM166.673 6.268H168.577V18.604C168.577 19.372 168.406 19.9213 168.065 20.252C167.734 20.5827 167.137 20.7533 166.273 20.764C165.622 20.7747 164.924 20.748 164.177 20.684L163.825 18.748C164.54 18.8333 165.206 18.876 165.825 18.876C166.156 18.876 166.38 18.812 166.497 18.684C166.614 18.5453 166.673 18.2893 166.673 17.916V6.268ZM154.929 8.556V6.684H162.833V8.556H159.249C159.11 9.1 158.95 9.628 158.769 10.14H162.433V11.916C162.113 13.2387 161.692 14.412 161.169 15.436C160.646 16.46 159.969 17.42 159.137 18.316C158.316 19.212 157.27 20.124 156.001 21.052L154.721 19.436C155.585 18.8493 156.321 18.2893 156.929 17.756C157.548 17.212 158.076 16.6627 158.513 16.108C158.001 15.6493 157.393 15.132 156.689 14.556C156.305 15.164 155.878 15.7507 155.409 16.316L154.177 14.812C154.796 14.012 155.398 13.0307 155.985 11.868C156.572 10.6947 156.993 9.59067 157.249 8.556H154.929ZM163.457 7.724H165.377V17.036H163.457V7.724ZM158.065 11.964C158.012 12.1027 157.868 12.4173 157.633 12.908C158.497 13.612 159.137 14.1453 159.553 14.508C159.926 13.772 160.246 12.924 160.513 11.964H158.065Z" fill="black"/>
</svg>
