<svg width="122" height="28" viewBox="0 0 122 28" fill="none" xmlns="http://www.w3.org/2000/svg">
<rect width="121.135" height="28" fill="white"/>
<path d="M31.4151 16.8658C31.4151 15.2121 30.2045 13.9481 28.6568 13.9481C27.109 13.9481 25.8985 15.2035 25.8985 16.8658C25.8985 18.5281 27.109 19.7489 28.6568 19.7489C30.1959 19.7489 31.4151 18.5195 31.4151 16.8658ZM32.8936 16.8658C32.8936 19.2468 31.0346 21.1255 28.6481 21.1255C26.2617 21.1255 24.4026 19.2468 24.4026 16.8658C24.4026 14.4848 26.2617 12.5628 28.6481 12.5628C31.0346 12.5628 32.8936 14.4675 32.8936 16.8658Z" fill="#00B2E3"/>
<path d="M37.9087 18.2597C37.9087 17.2641 37.2602 16.632 36.3956 16.632C35.626 16.632 34.8565 17.2641 34.8565 18.2597C34.8565 19.2554 35.626 19.8701 36.3956 19.8701C37.2602 19.8788 37.9087 19.2554 37.9087 18.2597ZM39.3008 18.2597C39.3008 19.9567 38.0211 21.1255 36.6463 21.1255C35.9114 21.1255 35.3147 20.9091 34.8651 20.5368V24H33.4384V15.5584H34.8651V15.9913C35.3234 15.6104 35.9114 15.3939 36.6463 15.3939C38.0211 15.3939 39.3008 16.5628 39.3008 18.2597Z" fill="#00B2E3"/>
<path d="M41.2117 17.6364H43.823C43.6415 16.9437 43.1227 16.6407 42.5433 16.6407C41.9986 16.632 41.3847 16.961 41.2117 17.6364ZM45.2757 18.6407H41.1599C41.2982 19.4199 41.8516 19.8961 42.5087 19.8961C42.9324 19.8961 43.4599 19.8442 43.849 19.1775L45.1287 19.4459C44.6531 20.5714 43.6933 21.1169 42.5087 21.1169C40.9869 21.1169 39.7418 19.9567 39.7418 18.2597C39.7418 16.5628 40.9869 15.3853 42.5347 15.3853C43.97 15.3853 45.2151 16.5022 45.2757 18.1472V18.6407Z" fill="#00B2E3"/>
<path d="M51.1121 17.6623V20.961H49.6768V17.9654C49.6768 17.2035 49.2445 16.7013 48.5873 16.7013C47.7745 16.7013 47.2471 17.2468 47.2471 18.5628V20.961H45.8204V15.5498H47.2471V16.0346C47.6708 15.6104 48.2328 15.3853 48.9418 15.3853C50.2388 15.3939 51.1121 16.3203 51.1121 17.6623Z" fill="#00B2E3"/>
<path d="M59.8971 20.961H58.7471L56.7325 15.619L54.7092 20.961H53.5764L50.8787 12.7273H52.4178L54.2249 18.1645L56.2915 12.7273H57.1648L59.2313 18.1645L61.0385 12.7273H62.5862L59.8971 20.961Z" fill="#00B2E3"/>
<path d="M66.1054 15.5238L66.0276 16.9004H65.7163C64.3934 16.9004 63.7881 17.7143 63.7881 19.2208V20.961H62.3614V15.5498H63.7881V16.4935C64.1859 15.8615 64.8171 15.4719 65.725 15.4719C65.8633 15.4805 65.9757 15.4805 66.1054 15.5238Z" fill="#00B2E3"/>
<path d="M69.1404 18.9697C69.1404 19.4978 69.3911 19.7922 69.8235 19.7922C70.0742 19.7922 70.4374 19.6797 70.7227 19.5325L71.1377 20.7273C70.5757 21.0303 70.1866 21.1255 69.7283 21.1255C68.44 21.1255 67.7137 20.3896 67.7137 19.0736V16.7186H66.555V15.5498H67.7137V13.5844L69.1404 13.1515V15.5498H71.2329V16.7186H69.1404V18.9697Z" fill="#00B2E3"/>
<path d="M38.0989 23.9654H37.779L37.4764 23.1342L37.1737 23.9654H36.8538L36.361 22.4329H36.776L37.0268 23.2554L37.3467 22.4329H37.6147L37.926 23.2554L38.1854 22.4329H38.6004L38.0989 23.9654Z" fill="#002B49"/>
<path d="M40.1309 23.6364H40.4422V23.9654H39.4305V23.6364H39.7418V22.7706H39.4305V22.4329H40.4422V22.7706H40.1309V23.6364Z" fill="#002B49"/>
<path d="M42.1715 23.2987C42.3358 23.2987 42.4655 23.1861 42.4655 23.0216C42.4655 22.8571 42.3358 22.7619 42.1715 22.7619H41.8602V23.2987H42.1715ZM42.4396 23.9654L42.1542 23.6364H41.8516V23.9654H41.4625V22.4329H42.1715C42.5693 22.4329 42.82 22.6667 42.82 23.0216C42.82 23.2468 42.7163 23.4372 42.5433 23.5325L42.9238 23.9567L42.4396 23.9654Z" fill="#002B49"/>
<path d="M44.8866 23.9654H43.7193V22.4329H44.8779V22.7706H44.1084V23.0303H44.8693V23.3593H44.1084V23.6364H44.8866V23.9654Z" fill="#002B49"/>
<path d="M47.0396 23.9654H45.9155V22.4329H46.3046V23.6364H47.0396V23.9654Z" fill="#002B49"/>
<path d="M49.2271 23.9654H48.0598V22.4329H49.2185V22.7706H48.4489V23.0303H49.2098V23.3593H48.4489V23.6364H49.2271V23.9654Z" fill="#002B49"/>
<path d="M51.4839 22.8398L51.1035 22.9177C51.0689 22.7619 50.9651 22.7186 50.8787 22.7186C50.7922 22.7186 50.7144 22.7619 50.7144 22.8485C50.7144 22.9091 50.749 22.9437 50.8095 22.9697L51.1035 23.0649C51.3542 23.1429 51.4926 23.2641 51.4926 23.5065C51.4926 23.8528 51.19 23.9913 50.8873 23.9913C50.5587 23.9913 50.2821 23.8182 50.2475 23.5238L50.6452 23.4459C50.6798 23.6017 50.7663 23.6623 50.9046 23.6623C51.017 23.6623 51.0862 23.6104 51.0862 23.5325C51.0862 23.4719 51.0516 23.4286 50.9738 23.4113L50.6884 23.3333C50.455 23.2641 50.2993 23.1515 50.2993 22.9004C50.2993 22.5887 50.5415 22.4156 50.8787 22.4156C51.1986 22.4069 51.4321 22.5628 51.4839 22.8398Z" fill="#002B49"/>
<path d="M53.5073 22.8398L53.1268 22.9177C53.0922 22.7619 52.9885 22.7186 52.902 22.7186C52.8155 22.7186 52.7377 22.7619 52.7377 22.8485C52.7377 22.9091 52.7723 22.9437 52.8328 22.9697L53.1268 23.0649C53.3776 23.1429 53.5159 23.2641 53.5159 23.5065C53.5159 23.8528 53.2133 23.9913 52.9106 23.9913C52.5821 23.9913 52.3054 23.8182 52.2708 23.5238L52.6685 23.4459C52.7031 23.6017 52.7896 23.6623 52.9279 23.6623C53.0403 23.6623 53.1095 23.6104 53.1095 23.5325C53.1095 23.4719 53.0749 23.4286 52.9971 23.4113L52.7118 23.3247C52.4783 23.2554 52.3227 23.1429 52.3227 22.8918C52.3227 22.5801 52.5648 22.4069 52.902 22.4069C53.2219 22.4069 53.4554 22.5628 53.5073 22.8398Z" fill="#002B49"/>
<path d="M56.3001 23.0303H57.0178V23.3593H56.3001V23.9654H55.9196V22.4329H57.0696V22.7706H56.3001V23.0303Z" fill="#002B49"/>
<path d="M58.799 23.2987C58.9633 23.2987 59.093 23.1861 59.093 23.0216C59.093 22.8571 58.9633 22.7619 58.799 22.7619H58.4877V23.2987H58.799ZM59.0671 23.9654L58.7817 23.6364H58.4791V23.9654H58.09V22.4329H58.799C59.2054 22.4329 59.4475 22.6667 59.4475 23.0216C59.4475 23.2468 59.3438 23.4372 59.1708 23.5325L59.5426 23.9567L59.0671 23.9654Z" fill="#002B49"/>
<path d="M61.5141 23.9654H60.3468V22.4329H61.5054V22.7706H60.7359V23.0303H61.4968V23.3593H60.7359V23.6364H61.5141V23.9654Z" fill="#002B49"/>
<path d="M63.7103 23.9654H62.543V22.4329H63.7017V22.7706H62.9321V23.0303H63.6844V23.3593H62.9321V23.6364H63.7103V23.9654Z" fill="#002B49"/>
<path d="M65.4137 23.6364C65.6731 23.6364 65.8374 23.4632 65.8374 23.2035C65.8374 22.9437 65.6731 22.7706 65.4137 22.7706H65.1197V23.6364H65.4137ZM65.4223 22.4329C65.9065 22.4329 66.2265 22.7359 66.2265 23.1948C66.2265 23.6537 65.9065 23.9567 65.4223 23.9567H64.7392V22.4242H65.4223V22.4329Z" fill="#002B49"/>
<path d="M68.2757 23.2035C68.2757 22.9524 68.0855 22.7532 67.8434 22.7532C67.6013 22.7532 67.4111 22.9524 67.4111 23.2035C67.4111 23.4545 67.6013 23.6537 67.8434 23.6537C68.0855 23.6537 68.2757 23.4545 68.2757 23.2035ZM68.6562 23.2035C68.6562 23.6537 68.293 24 67.8348 24C67.3765 24 67.0133 23.6537 67.0133 23.2035C67.0133 22.7532 67.3765 22.4069 67.8348 22.4069C68.293 22.4069 68.6562 22.7532 68.6562 23.2035Z" fill="#002B49"/>
<path d="M71.2329 23.9654H70.8524V23.2381L70.4028 23.8615H70.2904L69.8321 23.2381V23.9654H69.4603V22.4329H69.7024L70.3423 23.3333L70.9821 22.4329H71.2329V23.9654Z" fill="#002B49"/>
<path d="M72.1667 12.4156C72.2705 12.4156 72.331 12.355 72.331 12.2857C72.331 12.2164 72.2705 12.1558 72.1667 12.1558H71.9679V12.4156H72.1667ZM72.5299 13.0216L72.1322 12.5887H71.9679V13.0216H71.7863V11.9913H72.1667C72.3829 11.9913 72.5126 12.1126 72.5126 12.2857C72.5126 12.4069 72.4434 12.5108 72.3397 12.5541L72.7634 13.013H72.5299V13.0216Z" fill="#00B2E3"/>
<path d="M72.184 11.7403C71.7344 11.7403 71.3626 12.1039 71.3626 12.5541C71.3626 13.0043 71.7257 13.368 72.184 13.368C72.6423 13.368 73.0054 13.0043 73.0054 12.5541C73.0054 12.1039 72.6336 11.7403 72.184 11.7403ZM72.184 13.5152C71.6566 13.5152 71.2329 13.0909 71.2329 12.5628C71.2329 12.0346 71.6566 11.6104 72.184 11.6104C72.7115 11.6104 73.1351 12.0346 73.1351 12.5628C73.1351 13.0909 72.7115 13.5152 72.184 13.5152Z" fill="#00B2E3"/>
<path d="M15.6696 13.619C14.9778 13.619 14.4244 14.1818 14.4244 14.8658C14.4244 15.5498 14.9865 16.1126 15.6696 16.1126C16.3526 16.1126 16.9147 15.5498 16.9147 14.8658C16.9147 14.1818 16.3526 13.619 15.6696 13.619Z" fill="#00B2E3"/>
<path d="M8 7.18615L9.297 8.48485C10.9312 6.85714 13.1793 5.85281 15.6696 5.85281C18.1598 5.85281 20.4079 6.85714 22.0335 8.49351L23.3305 7.19481C21.3764 5.22078 18.6613 4 15.6696 4C12.6778 4 9.96279 5.22078 8 7.18615Z" fill="#00B2E3"/>
<path d="M10.3433 9.53246L11.6403 10.8312C12.6779 9.80086 14.1045 9.16883 15.6696 9.16883C17.2346 9.16883 18.6613 9.80952 19.6989 10.8398L20.9959 9.54112C19.6298 8.17316 17.7448 7.32467 15.6696 7.32467C13.5944 7.31601 11.7094 8.17316 10.3433 9.53246Z" fill="#00B2E3"/>
<path d="M12.6779 11.8701L13.9749 13.1688C14.9087 12.2338 16.4219 12.2338 17.3643 13.1688L18.6613 11.8701C17.8658 11.0736 16.7937 10.632 15.6696 10.632C14.5455 10.632 13.4474 11.0996 12.6779 11.8701Z" fill="#00B2E3"/>
<path d="M20.2782 11.5152C20.97 12.4589 21.3763 13.619 21.3763 14.8658C21.3763 18.0173 18.8169 20.5801 15.6696 20.5801C12.5222 20.5801 9.96279 18.0173 9.96279 14.8658C9.96279 13.619 10.3692 12.4589 11.0609 11.5152L9.74662 10.1991C8.72632 11.4892 8.1297 13.1082 8.1297 14.8658C8.1297 19.0216 11.5192 22.4156 15.6696 22.4156C19.82 22.4156 23.2094 19.0216 23.2094 14.8658C23.2094 13.1082 22.5955 11.4892 21.5925 10.1991L20.2782 11.5152Z" fill="#002B49"/>
<path d="M90.2871 15.436V18.748C90.2871 19.2707 90.2231 19.6653 90.0951 19.932C89.9778 20.2093 89.7698 20.4013 89.4711 20.508C89.1725 20.6147 88.7245 20.6733 88.1271 20.684C87.7005 20.684 87.1885 20.6467 86.5911 20.572L86.2231 18.732C86.7671 18.8067 87.2791 18.844 87.7591 18.844C88.0045 18.844 88.1645 18.8013 88.2391 18.716C88.3138 18.62 88.3511 18.4493 88.3511 18.204V15.596L84.3991 15.932L83.1991 16.06L82.8471 14.172C83.1245 14.1507 83.3645 14.124 83.5671 14.092C83.7805 14.0493 84.0471 13.9853 84.3671 13.9C85.3698 13.6013 86.6071 12.956 88.0791 11.964C86.5965 12.1453 85.5458 12.268 84.9271 12.332C84.9485 12.332 84.6338 12.3693 83.9831 12.444L83.5671 12.492L83.1991 10.796C83.4978 10.7427 83.7271 10.6893 83.8871 10.636C84.0578 10.5827 84.2338 10.5187 84.4151 10.444C85.0125 10.1667 85.8391 9.60133 86.8951 8.748C85.4658 8.844 84.1431 8.908 82.9271 8.94L82.7031 7.196C84.5058 7.17467 86.5858 7.068 88.9431 6.876C91.3111 6.684 93.2951 6.45467 94.8951 6.188L95.2631 7.948C93.9405 8.15067 92.0151 8.35333 89.4871 8.556C88.4525 9.516 87.5671 10.236 86.8311 10.716C88.0045 10.62 89.1618 10.5027 90.3031 10.364C91.1991 9.64933 91.8711 9.07867 92.3191 8.652L93.8711 9.788C92.8578 10.6947 91.7858 11.5427 90.6551 12.332C89.5351 13.1213 88.4898 13.7347 87.5191 14.172C89.1191 14.0333 90.7191 13.8733 92.3191 13.692C91.9885 13.3293 91.6898 13.0147 91.4231 12.748L92.8151 11.66C93.8071 12.6733 94.9058 13.8573 96.1111 15.212L94.7191 16.428L94.4471 16.108C94.1165 15.7133 93.8285 15.388 93.5831 15.132L90.2871 15.436ZM92.3671 15.916C93.4338 16.588 94.8365 17.5427 96.5751 18.78L95.5351 20.364C94.9378 19.9053 94.2231 19.3933 93.3911 18.828C92.5698 18.2627 91.8711 17.804 91.2951 17.452L92.3671 15.916ZM86.8791 17.484C85.3005 18.796 83.9191 19.772 82.7351 20.412L81.7111 18.78C83.1831 18.012 84.4951 17.1053 85.6471 16.06L86.8791 17.484ZM109.951 6.268H111.855V18.604C111.855 19.372 111.684 19.9213 111.343 20.252C111.012 20.5827 110.415 20.7533 109.551 20.764C108.9 20.7747 108.202 20.748 107.455 20.684L107.103 18.748C107.818 18.8333 108.484 18.876 109.103 18.876C109.434 18.876 109.658 18.812 109.775 18.684C109.892 18.5453 109.951 18.2893 109.951 17.916V6.268ZM98.2071 8.556V6.684H106.111V8.556H102.527C102.388 9.1 102.228 9.628 102.047 10.14H105.711V11.916C105.391 13.2387 104.97 14.412 104.447 15.436C103.924 16.46 103.247 17.42 102.415 18.316C101.594 19.212 100.548 20.124 99.2791 21.052L97.9991 19.436C98.8631 18.8493 99.5991 18.2893 100.207 17.756C100.826 17.212 101.354 16.6627 101.791 16.108C101.279 15.6493 100.671 15.132 99.9671 14.556C99.5831 15.164 99.1565 15.7507 98.6871 16.316L97.4551 14.812C98.0738 14.012 98.6765 13.0307 99.2631 11.868C99.8498 10.6947 100.271 9.59067 100.527 8.556H98.2071ZM106.735 7.724H108.655V17.036H106.735V7.724ZM101.343 11.964C101.29 12.1027 101.146 12.4173 100.911 12.908C101.775 13.612 102.415 14.1453 102.831 14.508C103.204 13.772 103.524 12.924 103.791 11.964H101.343Z" fill="black"/>
</svg>
